<svg width="48" height="48" viewBox="0 0 48 48" fill="none" xmlns="http://www.w3.org/2000/svg">
<path d="M48 24C48 37.2548 37.2548 48 24 48C10.7452 48 0 37.2548 0 24C0 10.7452 10.7452 0 24 0C37.2548 0 48 10.7452 48 24Z" fill="black"/>
<path fill-rule="evenodd" clip-rule="evenodd" d="M24 47C36.7025 47 47 36.7025 47 24C47 11.2975 36.7025 1 24 1C11.2975 1 1 11.2975 1 24C1 36.7025 11.2975 47 24 47ZM24 48C37.2548 48 48 37.2548 48 24C48 10.7452 37.2548 0 24 0C10.7452 0 0 10.7452 0 24C0 37.2548 10.7452 48 24 48Z" fill="white"/>
<path fill-rule="evenodd" clip-rule="evenodd" d="M31.8536 16.1464C32.0488 16.3417 32.0488 16.6583 31.8536 16.8536L16.8536 31.8536C16.6583 32.0488 16.3417 32.0488 16.1464 31.8536C15.9512 31.6583 15.9512 31.3417 16.1464 31.1464L31.1464 16.1464C31.3417 15.9512 31.6583 15.9512 31.8536 16.1464Z" fill="white"/>
<path fill-rule="evenodd" clip-rule="evenodd" d="M16.1464 16.1464C16.3417 15.9512 16.6583 15.9512 16.8536 16.1464L31.8536 31.1464C32.0488 31.3417 32.0488 31.6583 31.8536 31.8536C31.6583 32.0488 31.3417 32.0488 31.1464 31.8536L16.1464 16.8536C15.9512 16.6583 15.9512 16.3417 16.1464 16.1464Z" fill="white"/>
</svg>
