<svg width="1024" height="1024" viewBox="0 0 1024 1024" fill="none" xmlns="http://www.w3.org/2000/svg">
<rect width="1024" height="1024" fill="#161616"/>
<mask id="path-1-outside-1_584_44" maskUnits="userSpaceOnUse" x="174" y="87" width="678" height="834" fill="black">
<rect fill="white" x="174" y="87" width="678" height="834"/>
<path d="M245.872 405.819C226.716 405.819 210.532 400.374 197.321 389.484C184.44 378.594 178 362.919 178 342.459C178 326.949 185.927 312.759 201.78 299.889C217.633 286.689 242.569 276.789 276.588 270.189C281.873 269.199 287.818 268.209 294.423 267.219C301.029 265.899 307.964 264.579 315.231 263.259V224.155C315.231 201.715 312.423 186.04 306.809 177.13C301.524 167.89 293.102 163.27 281.542 163.27C273.616 163.27 267.34 165.91 262.716 171.19C258.092 176.14 255.12 184.885 253.799 197.425L252.808 202.87C252.147 217.06 248.68 227.455 242.404 234.055C236.129 240.655 228.367 243.955 219.12 243.955C210.532 243.955 203.431 241.315 197.817 236.035C192.202 230.755 189.395 223.66 189.395 214.75C189.395 201.22 194.019 189.835 203.266 180.595C212.844 171.355 225.395 164.425 240.918 159.805C256.441 155.185 273.285 152.875 291.451 152.875C320.845 152.875 343.469 160.135 359.323 174.655C375.506 188.845 383.598 212.11 383.598 244.45V353.844C383.598 368.694 390.534 376.119 404.406 376.119H415.305L419.764 380.079C413.488 387.999 406.552 394.104 398.956 398.394C391.69 402.684 381.286 404.829 367.745 404.829C353.213 404.829 341.653 401.529 333.066 394.929C324.809 387.999 319.359 378.924 316.717 367.704C306.809 378.264 296.57 387.339 286.001 394.929C275.762 402.189 262.386 405.819 245.872 405.819ZM276.093 375.624C282.698 375.624 288.808 374.139 294.423 371.169C300.368 367.869 307.304 362.919 315.231 356.319L315.231 273.159C311.928 273.819 308.625 274.479 305.322 275.139C302.019 275.799 298.221 276.459 293.928 277.119C278.735 281.079 266.515 287.844 257.267 297.414C248.349 306.654 243.891 319.194 243.891 335.034C243.891 348.564 247.028 358.794 253.303 365.724C259.579 372.324 267.175 375.624 276.093 375.624Z"/>
<path d="M444.234 398.394V393.444L451.666 391.464C458.271 389.484 462.73 386.514 465.042 382.554C467.684 378.594 469.005 373.479 469.005 367.209L469.005 212.275C469.005 205.015 467.684 199.735 465.042 196.435C462.73 192.805 458.271 190.33 451.666 189.01L444.234 187.03V182.08L529.446 153.37L534.4 158.32L538.859 200.89V204.85C543.483 195.61 549.428 187.195 556.694 179.605C564.29 171.685 572.547 165.25 581.465 160.3C590.713 155.35 599.795 152.875 608.713 152.875C621.263 152.875 630.841 156.34 637.447 163.27C644.053 170.2 647.355 178.945 647.355 189.505C647.355 200.725 644.053 209.47 637.447 215.74C631.172 221.68 623.575 224.65 614.658 224.65C600.786 224.65 588.566 217.72 577.997 203.86L577.006 202.87C573.703 198.25 569.905 195.775 565.612 195.445C561.318 194.785 557.354 196.765 553.721 201.385C550.419 204.355 547.611 207.985 545.299 212.275C543.318 216.235 541.336 220.855 539.354 226.135V364.239C539.354 377.439 545.134 385.689 556.694 388.989L572.547 393.444V398.394H444.234Z"/>
<path d="M776.642 405.819C755.504 405.819 738.99 400.539 727.1 389.979C715.54 379.419 709.76 362.589 709.76 339.489V170.2H675.577V165.25L687.466 163.27C697.705 160.96 706.458 157.66 713.724 153.37C721.32 149.08 728.751 143.305 736.017 136.045L776.642 91H781.596L780.109 160.3H835.596V170.2H779.614V348.399C779.614 359.949 782.091 368.694 787.045 374.634C792.33 380.574 798.935 383.544 806.862 383.544C813.798 383.544 819.908 381.894 825.192 378.594C830.477 374.964 835.761 370.179 841.046 364.239L846 369.189C839.394 380.409 830.312 389.319 818.752 395.919C807.192 402.519 793.155 405.819 776.642 405.819Z"/>
<path d="M325.139 524.961C315.891 524.961 307.799 521.991 300.863 516.051C294.258 509.781 290.955 501.531 290.955 491.301C290.955 479.751 294.918 470.346 302.845 463.086C311.102 455.496 320.35 451.701 330.588 451.701C340.497 451.701 348.589 454.836 354.864 461.106C361.139 467.376 364.277 475.461 364.277 485.361C364.277 496.581 360.313 505.986 352.387 513.576C344.46 521.166 335.377 524.961 325.139 524.961ZM279.065 805.625C268.826 805.625 260.404 802.985 253.799 797.705C247.193 792.425 243.891 784.67 243.891 774.44C243.891 768.5 244.551 761.406 245.872 753.156C247.193 744.906 248.679 736.656 250.331 728.406L273.615 617.031C276.588 603.501 271.799 593.931 259.248 588.321L251.322 584.361L251.817 578.916L344.956 552.186L349.91 556.641L311.267 735.831C309.946 741.771 308.955 746.886 308.295 751.176C307.634 755.136 307.304 759.095 307.304 763.055C307.304 770.315 310.607 773.945 317.212 773.945C322.166 773.945 327.121 772.46 332.075 769.49C337.029 766.19 343.304 760.911 350.901 753.651L355.359 758.106C347.102 770.316 336.533 781.37 323.653 791.27C311.102 800.84 296.239 805.625 279.065 805.625Z"/>
<path d="M336.611 917C322.739 917 310.189 913.865 298.959 907.595C287.73 901.325 282.115 892.415 282.115 880.865C282.115 872.285 284.922 865.685 290.537 861.065C296.152 856.445 302.757 854.135 310.354 854.135C317.95 854.135 325.051 856.115 331.657 860.075C337.932 864.035 343.547 870.965 348.501 880.865L353.455 893.24C355.437 896.87 357.749 898.85 360.391 899.18C363.033 899.84 365.51 898.19 367.822 894.23C369.474 891.26 370.96 887.795 372.281 883.835C373.602 880.205 375.253 875.585 377.235 869.975C381.859 858.755 385.822 845.06 389.125 828.89C392.758 813.05 396.061 795.395 399.034 775.925C404.318 743.586 409.437 710.421 414.391 676.431C419.345 642.441 424.465 606.636 429.749 569.016H389.62L390.611 564.561L409.933 562.581C417.859 561.591 423.804 558.951 427.768 554.661C431.731 550.371 434.868 544.101 437.18 535.851C446.098 507.141 460.465 485.031 480.282 469.521C500.098 454.011 524.539 446.257 553.604 446.257C570.118 446.257 583.494 449.886 593.732 457.146C603.971 464.076 609.09 472.986 609.09 483.876C609.09 492.786 606.283 499.881 600.668 505.161C595.053 510.441 588.283 513.081 580.356 513.081C564.833 513.081 551.952 502.686 541.714 481.896L539.732 473.976C536.759 467.046 533.292 463.746 529.328 464.076C525.695 464.076 522.557 466.551 519.915 471.501C514.3 479.421 509.181 490.476 504.557 504.666C499.933 518.856 495.805 537.336 492.172 560.106H552.613L550.136 570.501L490.686 570.006C485.401 604.986 480.117 640.131 474.832 675.441C469.878 710.421 464.428 744.081 458.483 776.42C453.86 800.84 447.749 821.96 440.153 839.78C432.887 857.93 422.979 873.275 410.428 885.815C400.189 896.045 388.63 903.8 375.749 909.08C363.198 914.36 350.152 917 336.611 917Z"/>
<path d="M550.486 912.05C538.596 912.05 528.852 908.915 521.256 902.645C513.329 896.375 509.366 888.125 509.366 877.895C509.366 869.315 512.504 862.055 518.779 856.115C524.724 850.505 532.155 847.7 541.073 847.7C551.642 847.7 561.385 851.66 570.302 859.58C577.238 865.85 584.009 869.645 590.615 870.965C597.55 872.285 604.651 870.305 611.917 865.025C616.541 861.725 620.835 858.095 624.798 854.135C629.092 850.505 633.385 846.38 637.679 841.76C638.67 840.77 639.661 839.78 640.652 838.79C635.697 803.48 630.743 769.49 625.789 736.821C620.835 704.151 615.716 670.326 610.431 635.346C608.78 622.806 607.129 613.566 605.477 607.626C603.826 601.686 602.009 597.891 600.027 596.241C598.376 594.261 596.229 593.271 593.587 593.271C590.284 593.271 586.486 594.756 582.192 597.726C578.229 600.696 573.605 605.811 568.321 613.071L561.88 606.636C585 570.666 608.449 552.681 632.229 552.681C644.78 552.681 653.698 556.806 658.982 565.056C664.597 573.306 668.23 586.506 669.881 604.656C673.184 635.346 676.322 664.716 679.294 692.766C682.267 720.486 684.909 749.856 687.221 780.875C698.78 753.486 708.524 726.261 716.451 699.201C724.377 671.811 732.139 642.276 739.735 610.596C745.35 587.496 751.295 571.821 757.57 563.571C764.176 555.321 772.928 551.196 783.827 551.196C791.093 551.196 797.534 553.506 803.149 558.126C808.763 562.746 811.57 568.851 811.57 576.441C811.57 584.691 809.919 592.446 806.616 599.706C803.644 606.636 799.35 615.381 793.735 625.941C788.451 636.171 782.671 646.896 776.396 658.116C770.121 669.336 762.689 681.876 754.102 695.736C744.854 710.256 734.946 725.931 724.377 742.761C714.138 759.26 702.083 777.245 688.212 796.715C680.615 806.945 672.523 817.67 663.936 828.89C655.679 840.11 645.275 852.155 632.725 865.025C619.514 879.215 605.973 890.6 592.101 899.18C578.559 907.76 564.688 912.05 550.486 912.05Z"/>
</mask>
<path d="M245.872 405.819C226.716 405.819 210.532 400.374 197.321 389.484C184.44 378.594 178 362.919 178 342.459C178 326.949 185.927 312.759 201.78 299.889C217.633 286.689 242.569 276.789 276.588 270.189C281.873 269.199 287.818 268.209 294.423 267.219C301.029 265.899 307.964 264.579 315.231 263.259V224.155C315.231 201.715 312.423 186.04 306.809 177.13C301.524 167.89 293.102 163.27 281.542 163.27C273.616 163.27 267.34 165.91 262.716 171.19C258.092 176.14 255.12 184.885 253.799 197.425L252.808 202.87C252.147 217.06 248.68 227.455 242.404 234.055C236.129 240.655 228.367 243.955 219.12 243.955C210.532 243.955 203.431 241.315 197.817 236.035C192.202 230.755 189.395 223.66 189.395 214.75C189.395 201.22 194.019 189.835 203.266 180.595C212.844 171.355 225.395 164.425 240.918 159.805C256.441 155.185 273.285 152.875 291.451 152.875C320.845 152.875 343.469 160.135 359.323 174.655C375.506 188.845 383.598 212.11 383.598 244.45V353.844C383.598 368.694 390.534 376.119 404.406 376.119H415.305L419.764 380.079C413.488 387.999 406.552 394.104 398.956 398.394C391.69 402.684 381.286 404.829 367.745 404.829C353.213 404.829 341.653 401.529 333.066 394.929C324.809 387.999 319.359 378.924 316.717 367.704C306.809 378.264 296.57 387.339 286.001 394.929C275.762 402.189 262.386 405.819 245.872 405.819ZM276.093 375.624C282.698 375.624 288.808 374.139 294.423 371.169C300.368 367.869 307.304 362.919 315.231 356.319L315.231 273.159C311.928 273.819 308.625 274.479 305.322 275.139C302.019 275.799 298.221 276.459 293.928 277.119C278.735 281.079 266.515 287.844 257.267 297.414C248.349 306.654 243.891 319.194 243.891 335.034C243.891 348.564 247.028 358.794 253.303 365.724C259.579 372.324 267.175 375.624 276.093 375.624Z" stroke="white" stroke-width="8" mask="url(#path-1-outside-1_584_44)"/>
<path d="M444.234 398.394V393.444L451.666 391.464C458.271 389.484 462.73 386.514 465.042 382.554C467.684 378.594 469.005 373.479 469.005 367.209L469.005 212.275C469.005 205.015 467.684 199.735 465.042 196.435C462.73 192.805 458.271 190.33 451.666 189.01L444.234 187.03V182.08L529.446 153.37L534.4 158.32L538.859 200.89V204.85C543.483 195.61 549.428 187.195 556.694 179.605C564.29 171.685 572.547 165.25 581.465 160.3C590.713 155.35 599.795 152.875 608.713 152.875C621.263 152.875 630.841 156.34 637.447 163.27C644.053 170.2 647.355 178.945 647.355 189.505C647.355 200.725 644.053 209.47 637.447 215.74C631.172 221.68 623.575 224.65 614.658 224.65C600.786 224.65 588.566 217.72 577.997 203.86L577.006 202.87C573.703 198.25 569.905 195.775 565.612 195.445C561.318 194.785 557.354 196.765 553.721 201.385C550.419 204.355 547.611 207.985 545.299 212.275C543.318 216.235 541.336 220.855 539.354 226.135V364.239C539.354 377.439 545.134 385.689 556.694 388.989L572.547 393.444V398.394H444.234Z" stroke="white" stroke-width="8" mask="url(#path-1-outside-1_584_44)"/>
<path d="M776.642 405.819C755.504 405.819 738.99 400.539 727.1 389.979C715.54 379.419 709.76 362.589 709.76 339.489V170.2H675.577V165.25L687.466 163.27C697.705 160.96 706.458 157.66 713.724 153.37C721.32 149.08 728.751 143.305 736.017 136.045L776.642 91H781.596L780.109 160.3H835.596V170.2H779.614V348.399C779.614 359.949 782.091 368.694 787.045 374.634C792.33 380.574 798.935 383.544 806.862 383.544C813.798 383.544 819.908 381.894 825.192 378.594C830.477 374.964 835.761 370.179 841.046 364.239L846 369.189C839.394 380.409 830.312 389.319 818.752 395.919C807.192 402.519 793.155 405.819 776.642 405.819Z" stroke="white" stroke-width="8" mask="url(#path-1-outside-1_584_44)"/>
<path d="M325.139 524.961C315.891 524.961 307.799 521.991 300.863 516.051C294.258 509.781 290.955 501.531 290.955 491.301C290.955 479.751 294.918 470.346 302.845 463.086C311.102 455.496 320.35 451.701 330.588 451.701C340.497 451.701 348.589 454.836 354.864 461.106C361.139 467.376 364.277 475.461 364.277 485.361C364.277 496.581 360.313 505.986 352.387 513.576C344.46 521.166 335.377 524.961 325.139 524.961ZM279.065 805.625C268.826 805.625 260.404 802.985 253.799 797.705C247.193 792.425 243.891 784.67 243.891 774.44C243.891 768.5 244.551 761.406 245.872 753.156C247.193 744.906 248.679 736.656 250.331 728.406L273.615 617.031C276.588 603.501 271.799 593.931 259.248 588.321L251.322 584.361L251.817 578.916L344.956 552.186L349.91 556.641L311.267 735.831C309.946 741.771 308.955 746.886 308.295 751.176C307.634 755.136 307.304 759.095 307.304 763.055C307.304 770.315 310.607 773.945 317.212 773.945C322.166 773.945 327.121 772.46 332.075 769.49C337.029 766.19 343.304 760.911 350.901 753.651L355.359 758.106C347.102 770.316 336.533 781.37 323.653 791.27C311.102 800.84 296.239 805.625 279.065 805.625Z" stroke="white" stroke-width="8" mask="url(#path-1-outside-1_584_44)"/>
<path d="M336.611 917C322.739 917 310.189 913.865 298.959 907.595C287.73 901.325 282.115 892.415 282.115 880.865C282.115 872.285 284.922 865.685 290.537 861.065C296.152 856.445 302.757 854.135 310.354 854.135C317.95 854.135 325.051 856.115 331.657 860.075C337.932 864.035 343.547 870.965 348.501 880.865L353.455 893.24C355.437 896.87 357.749 898.85 360.391 899.18C363.033 899.84 365.51 898.19 367.822 894.23C369.474 891.26 370.96 887.795 372.281 883.835C373.602 880.205 375.253 875.585 377.235 869.975C381.859 858.755 385.822 845.06 389.125 828.89C392.758 813.05 396.061 795.395 399.034 775.925C404.318 743.586 409.437 710.421 414.391 676.431C419.345 642.441 424.465 606.636 429.749 569.016H389.62L390.611 564.561L409.933 562.581C417.859 561.591 423.804 558.951 427.768 554.661C431.731 550.371 434.868 544.101 437.18 535.851C446.098 507.141 460.465 485.031 480.282 469.521C500.098 454.011 524.539 446.257 553.604 446.257C570.118 446.257 583.494 449.886 593.732 457.146C603.971 464.076 609.09 472.986 609.09 483.876C609.09 492.786 606.283 499.881 600.668 505.161C595.053 510.441 588.283 513.081 580.356 513.081C564.833 513.081 551.952 502.686 541.714 481.896L539.732 473.976C536.759 467.046 533.292 463.746 529.328 464.076C525.695 464.076 522.557 466.551 519.915 471.501C514.3 479.421 509.181 490.476 504.557 504.666C499.933 518.856 495.805 537.336 492.172 560.106H552.613L550.136 570.501L490.686 570.006C485.401 604.986 480.117 640.131 474.832 675.441C469.878 710.421 464.428 744.081 458.483 776.42C453.86 800.84 447.749 821.96 440.153 839.78C432.887 857.93 422.979 873.275 410.428 885.815C400.189 896.045 388.63 903.8 375.749 909.08C363.198 914.36 350.152 917 336.611 917Z" stroke="white" stroke-width="8" mask="url(#path-1-outside-1_584_44)"/>
<path d="M550.486 912.05C538.596 912.05 528.852 908.915 521.256 902.645C513.329 896.375 509.366 888.125 509.366 877.895C509.366 869.315 512.504 862.055 518.779 856.115C524.724 850.505 532.155 847.7 541.073 847.7C551.642 847.7 561.385 851.66 570.302 859.58C577.238 865.85 584.009 869.645 590.615 870.965C597.55 872.285 604.651 870.305 611.917 865.025C616.541 861.725 620.835 858.095 624.798 854.135C629.092 850.505 633.385 846.38 637.679 841.76C638.67 840.77 639.661 839.78 640.652 838.79C635.697 803.48 630.743 769.49 625.789 736.821C620.835 704.151 615.716 670.326 610.431 635.346C608.78 622.806 607.129 613.566 605.477 607.626C603.826 601.686 602.009 597.891 600.027 596.241C598.376 594.261 596.229 593.271 593.587 593.271C590.284 593.271 586.486 594.756 582.192 597.726C578.229 600.696 573.605 605.811 568.321 613.071L561.88 606.636C585 570.666 608.449 552.681 632.229 552.681C644.78 552.681 653.698 556.806 658.982 565.056C664.597 573.306 668.23 586.506 669.881 604.656C673.184 635.346 676.322 664.716 679.294 692.766C682.267 720.486 684.909 749.856 687.221 780.875C698.78 753.486 708.524 726.261 716.451 699.201C724.377 671.811 732.139 642.276 739.735 610.596C745.35 587.496 751.295 571.821 757.57 563.571C764.176 555.321 772.928 551.196 783.827 551.196C791.093 551.196 797.534 553.506 803.149 558.126C808.763 562.746 811.57 568.851 811.57 576.441C811.57 584.691 809.919 592.446 806.616 599.706C803.644 606.636 799.35 615.381 793.735 625.941C788.451 636.171 782.671 646.896 776.396 658.116C770.121 669.336 762.689 681.876 754.102 695.736C744.854 710.256 734.946 725.931 724.377 742.761C714.138 759.26 702.083 777.245 688.212 796.715C680.615 806.945 672.523 817.67 663.936 828.89C655.679 840.11 645.275 852.155 632.725 865.025C619.514 879.215 605.973 890.6 592.101 899.18C578.559 907.76 564.688 912.05 550.486 912.05Z" stroke="white" stroke-width="8" mask="url(#path-1-outside-1_584_44)"/>
</svg>
