<svg width="271" height="240" viewBox="0 0 271 240" fill="none" xmlns="http://www.w3.org/2000/svg">
<path d="M80.7766 181.6C78.7766 181.6 77.1499 180.947 75.8966 179.64C74.6432 178.333 74.0166 176.48 74.0166 174.08C74.0166 172.373 74.3099 170.747 74.8966 169.2C75.4832 167.653 76.2966 166.28 77.3366 165.08C78.4032 163.853 79.6299 162.893 81.0166 162.2C82.4032 161.507 83.9099 161.16 85.5366 161.16C87.2166 161.16 88.4966 161.547 89.3766 162.32C90.2832 163.067 90.7366 164.067 90.7366 165.32C90.7366 166.36 90.2432 167.387 89.2566 168.4C88.2966 169.413 86.9366 170.333 85.1766 171.16C83.4166 171.96 81.3499 172.573 78.9766 173C79.0032 174.84 79.4032 176.187 80.1766 177.04C80.9499 177.893 82.0166 178.32 83.3766 178.32C84.5232 178.32 85.5766 178.013 86.5366 177.4C87.4966 176.76 88.3099 176.013 88.9766 175.16L89.3766 175.44C88.8432 176.48 88.1499 177.467 87.2966 178.4C86.4699 179.333 85.5099 180.107 84.4166 180.72C83.3232 181.307 82.1099 181.6 80.7766 181.6ZM85.2566 162.24C84.6432 162.24 83.9766 162.507 83.2566 163.04C82.5632 163.573 81.8966 164.307 81.2566 165.24C80.6432 166.147 80.1232 167.2 79.6966 168.4C79.2966 169.573 79.0566 170.827 78.9766 172.16C81.9099 171.36 83.9899 170.307 85.2166 169C86.4699 167.693 87.0966 166.213 87.0966 164.56C87.0966 163.76 86.9232 163.173 86.5766 162.8C86.2299 162.427 85.7899 162.24 85.2566 162.24ZM92.9919 181.6C92.2185 181.6 91.5252 181.373 90.9119 180.92C90.3252 180.44 90.0319 179.787 90.0319 178.96C90.0319 178.267 90.2452 177.707 90.6719 177.28C91.0985 176.853 91.6452 176.64 92.3119 176.64C93.1385 176.64 93.8719 177.04 94.5119 177.84C94.8852 178.347 95.2452 178.613 95.5919 178.64C95.9652 178.64 96.3652 178.347 96.7919 177.76C97.2985 177.067 97.8185 176.347 98.3519 175.6C98.9119 174.827 99.4719 174.027 100.032 173.2L97.9919 166.92C97.6719 165.933 97.3519 165.24 97.0319 164.84C96.7385 164.44 96.3652 164.24 95.9119 164.24C95.6452 164.24 95.3119 164.32 94.9119 164.48C94.5385 164.64 94.1519 164.987 93.7519 165.52L93.2719 165C95.0852 162.44 96.8585 161.16 98.5919 161.16C99.6319 161.16 100.405 161.453 100.912 162.04C101.419 162.627 101.885 163.547 102.312 164.8L103.552 168.6C104.299 167.373 104.965 166.333 105.552 165.48C106.139 164.6 106.592 163.96 106.912 163.56C107.659 162.627 108.365 162 109.032 161.68C109.699 161.333 110.365 161.16 111.032 161.16C111.725 161.16 112.325 161.36 112.832 161.76C113.339 162.16 113.592 162.747 113.592 163.52C113.592 164.267 113.365 164.853 112.912 165.28C112.485 165.707 111.979 165.92 111.392 165.92C110.565 165.92 109.832 165.547 109.192 164.8C108.872 164.4 108.579 164.173 108.312 164.12C108.072 164.067 107.739 164.293 107.312 164.8C106.939 165.253 106.445 165.907 105.832 166.76C105.219 167.613 104.565 168.533 103.872 169.52L106.112 176.24C106.405 177.2 106.685 177.853 106.952 178.2C107.219 178.547 107.565 178.72 107.992 178.72C108.392 178.72 108.792 178.587 109.192 178.32C109.592 178.053 110.032 177.68 110.512 177.2L110.992 177.64C110.272 178.787 109.445 179.747 108.512 180.52C107.579 181.293 106.565 181.68 105.472 181.68C104.645 181.68 103.925 181.453 103.312 181C102.699 180.547 102.192 179.707 101.792 178.48L100.352 174.16C99.6585 175.253 99.0052 176.24 98.3919 177.12C97.8052 177.973 97.2585 178.747 96.7519 179.44C96.2452 180.187 95.6985 180.733 95.1119 181.08C94.5519 181.427 93.8452 181.6 92.9919 181.6ZM120.729 181.6C120.036 181.6 119.369 181.453 118.729 181.16C118.436 182.493 118.182 183.693 117.969 184.76C117.756 185.827 117.569 186.84 117.409 187.8C117.276 188.68 117.649 189.24 118.529 189.48L119.529 189.8L119.449 190.2H109.809L109.889 189.8L110.649 189.6C111.582 189.333 112.142 188.733 112.329 187.8L116.849 166.24C117.036 165.2 116.662 164.467 115.729 164.04L114.969 163.72L115.049 163.28L122.449 161.12L122.849 161.44L122.009 165.64C123.049 164.333 124.236 163.267 125.569 162.44C126.929 161.587 128.196 161.16 129.369 161.16C130.462 161.16 131.409 161.547 132.209 162.32C133.009 163.093 133.409 164.493 133.409 166.52C133.409 167.987 133.156 169.44 132.649 170.88C132.169 172.32 131.489 173.693 130.609 175C129.756 176.28 128.782 177.413 127.689 178.4C126.596 179.387 125.449 180.173 124.249 180.76C123.049 181.32 121.876 181.6 120.729 181.6ZM125.889 164.12C125.276 164.12 124.609 164.36 123.889 164.84C123.169 165.32 122.462 165.987 121.769 166.84L119.409 178.4C120.396 179.387 121.422 179.88 122.489 179.88C124.062 179.88 125.356 179.053 126.369 177.4C126.742 176.76 127.089 175.947 127.409 174.96C127.729 173.973 127.982 172.907 128.169 171.76C128.382 170.587 128.489 169.453 128.489 168.36C128.489 167.027 128.262 165.987 127.809 165.24C127.382 164.493 126.742 164.12 125.889 164.12ZM142.823 181.6C141.436 181.6 140.169 181.333 139.023 180.8C137.876 180.24 136.969 179.413 136.303 178.32C135.636 177.2 135.303 175.787 135.303 174.08C135.303 172.373 135.583 170.747 136.143 169.2C136.729 167.653 137.543 166.28 138.583 165.08C139.623 163.853 140.836 162.893 142.223 162.2C143.609 161.507 145.116 161.16 146.743 161.16C148.156 161.16 149.409 161.44 150.503 162C151.623 162.533 152.503 163.347 153.143 164.44C153.809 165.533 154.143 166.933 154.143 168.64C154.143 170.32 153.849 171.947 153.263 173.52C152.703 175.067 151.903 176.453 150.863 177.68C149.849 178.88 148.649 179.84 147.263 180.56C145.903 181.253 144.423 181.6 142.823 181.6ZM143.303 180.8C144.129 180.8 144.876 180.427 145.543 179.68C146.236 178.907 146.836 177.893 147.343 176.64C147.849 175.36 148.236 173.96 148.503 172.44C148.769 170.893 148.903 169.36 148.903 167.84C148.903 165.627 148.676 164.093 148.223 163.24C147.769 162.387 147.183 161.96 146.463 161.96C145.609 161.96 144.823 162.333 144.103 163.08C143.383 163.827 142.756 164.827 142.223 166.08C141.689 167.333 141.276 168.72 140.983 170.24C140.689 171.76 140.543 173.28 140.543 174.8C140.543 177.067 140.809 178.64 141.343 179.52C141.876 180.373 142.529 180.8 143.303 180.8ZM156.16 181.28L155.76 181L158.8 166.36C158.934 165.667 158.894 165.16 158.68 164.84C158.467 164.493 158.107 164.213 157.6 164L157 163.72L157.08 163.32L164.04 161.12L164.44 161.48L163.36 168.08C163.92 166.8 164.574 165.64 165.32 164.6C166.067 163.56 166.854 162.733 167.68 162.12C168.507 161.48 169.334 161.16 170.16 161.16C170.987 161.16 171.654 161.387 172.16 161.84C172.667 162.267 172.92 162.84 172.92 163.56C172.92 164.307 172.694 164.92 172.24 165.4C171.814 165.88 171.227 166.12 170.48 166.12C169.894 166.12 169.334 165.973 168.8 165.68C168.267 165.36 167.747 164.907 167.24 164.32C166.307 165.013 165.507 165.92 164.84 167.04C164.174 168.133 163.56 169.333 163 170.64L162.6 172.48C162.307 173.893 162.027 175.307 161.76 176.72C161.494 178.133 161.227 179.56 160.96 181L156.16 181.28ZM177.112 181.6C176.285 181.6 175.592 181.387 175.032 180.96C174.498 180.507 174.232 179.853 174.232 179C174.232 178.467 174.285 177.893 174.392 177.28C174.498 176.64 174.618 175.96 174.752 175.24L177.512 162.6H174.192L174.312 162.12L175.752 161.96C176.498 161.88 177.152 161.693 177.712 161.4C178.272 161.107 178.805 160.693 179.312 160.16L183.152 156.28H183.752L182.632 161.76H186.992L186.792 162.6H182.432L179.672 175.92C179.565 176.427 179.485 176.867 179.432 177.24C179.378 177.587 179.352 177.88 179.352 178.12C179.352 178.387 179.432 178.6 179.592 178.76C179.752 178.92 179.925 179 180.112 179C180.485 179 180.885 178.853 181.312 178.56C181.738 178.24 182.272 177.773 182.912 177.16L183.392 177.56C182.725 178.547 181.858 179.467 180.792 180.32C179.725 181.173 178.498 181.6 177.112 181.6ZM25.4866 227.12L18.4066 210.12C18.0332 209.213 17.3932 208.613 16.4866 208.32L15.9266 208.16V207.76H26.2866V208.16L25.5666 208.32C24.5266 208.587 24.2066 209.28 24.6066 210.4L28.8066 221.56L32.7266 210.48C32.9399 209.947 32.9932 209.507 32.8866 209.16C32.7799 208.813 32.4599 208.56 31.9266 208.4L30.9266 208.16V207.76H36.7266V208.16L35.5666 208.44C35.0599 208.573 34.6599 208.773 34.3666 209.04C34.0999 209.307 33.8732 209.707 33.6866 210.24L27.8066 227.12H25.4866ZM42.5375 205.08C41.6308 205.08 40.8575 204.8 40.2175 204.24C39.6042 203.653 39.2975 202.92 39.2975 202.04C39.2975 201.133 39.6042 200.4 40.2175 199.84C40.8575 199.28 41.6308 199 42.5375 199C43.4442 199 44.2042 199.28 44.8175 199.84C45.4308 200.4 45.7375 201.133 45.7375 202.04C45.7375 202.92 45.4308 203.653 44.8175 204.24C44.2042 204.8 43.4442 205.08 42.5375 205.08ZM37.8175 227V226.6L38.3775 226.44C38.9108 226.28 39.2708 226.04 39.4575 225.72C39.6708 225.4 39.7775 224.973 39.7775 224.44V211.92C39.7775 211.36 39.6708 210.947 39.4575 210.68C39.2708 210.387 38.9108 210.187 38.3775 210.08L37.8175 209.96V209.56L45.1375 207.2L45.5375 207.6L45.4175 213.28V224.48C45.4175 225.013 45.5108 225.44 45.6975 225.76C45.9108 226.08 46.2708 226.32 46.7775 226.48L47.1775 226.6V227H37.8175ZM55.8684 227.6C54.5618 227.6 53.3884 227.44 52.3484 227.12C51.3084 226.827 50.3484 226.453 49.4684 226L49.5084 221.24H49.9084L51.2684 223.64C51.8551 224.707 52.4951 225.507 53.1884 226.04C53.9084 226.547 54.8151 226.8 55.9084 226.8C57.1884 226.8 58.2151 226.52 58.9884 225.96C59.7884 225.373 60.1884 224.6 60.1884 223.64C60.1884 222.76 59.9084 222.04 59.3484 221.48C58.7884 220.92 57.7484 220.413 56.2284 219.96L54.5484 219.44C52.9218 218.96 51.6418 218.213 50.7084 217.2C49.7751 216.187 49.3084 214.947 49.3084 213.48C49.3084 211.72 50.0018 210.227 51.3884 209C52.7751 207.773 54.7618 207.16 57.3484 207.16C58.3884 207.16 59.3618 207.28 60.2684 207.52C61.2018 207.733 62.0951 208.067 62.9484 208.52L62.7084 212.84H62.3084L60.9084 210.36C60.4018 209.48 59.8951 208.867 59.3884 208.52C58.9084 208.147 58.1751 207.96 57.1884 207.96C56.2818 207.96 55.4284 208.213 54.6284 208.72C53.8284 209.227 53.4284 209.947 53.4284 210.88C53.4284 211.787 53.7618 212.507 54.4284 213.04C55.1218 213.573 56.1351 214.067 57.4684 214.52L59.2684 215.04C61.1884 215.627 62.5618 216.44 63.3884 217.48C64.2151 218.493 64.6284 219.72 64.6284 221.16C64.6284 223.107 63.8551 224.667 62.3084 225.84C60.7884 227.013 58.6418 227.6 55.8684 227.6ZM73.3759 227.6C72.3359 227.6 71.3759 227.4 70.4959 227C69.6426 226.6 68.9626 225.96 68.4559 225.08C67.9759 224.173 67.7493 222.987 67.7759 221.52L67.8959 211.24C67.8959 210.627 67.7893 210.187 67.5759 209.92C67.3626 209.653 67.0293 209.467 66.5759 209.36L66.0959 209.2V208.8L73.2559 207.4L73.6559 207.8L73.4559 213.48V223.12C73.4559 223.973 73.6959 224.6 74.1759 225C74.6826 225.4 75.3093 225.6 76.0559 225.6C76.8026 225.6 77.4693 225.493 78.0559 225.28C78.6426 225.067 79.2293 224.747 79.8159 224.32L79.9759 211.28C79.9759 210.667 79.8826 210.24 79.6959 210C79.5093 209.733 79.1626 209.547 78.6559 209.44L78.2559 209.32V208.92L85.2559 207.4L85.6559 207.8L85.5359 213.48V224.32C85.5359 224.907 85.6159 225.36 85.7759 225.68C85.9359 226 86.2826 226.267 86.8159 226.48L87.2159 226.6V227L80.2159 227.4L79.8559 225.04C78.9759 225.76 78.0159 226.373 76.9759 226.88C75.9626 227.36 74.7626 227.6 73.3759 227.6ZM94.6713 227.6C93.1246 227.6 91.8179 227.16 90.7513 226.28C89.7113 225.4 89.1913 224.133 89.1913 222.48C89.1913 221.227 89.8313 220.08 91.1113 219.04C92.3913 217.973 94.4046 217.173 97.1513 216.64C97.5779 216.56 98.0579 216.48 98.5912 216.4C99.1246 216.293 99.6846 216.187 100.271 216.08V212.92C100.271 211.107 100.045 209.84 99.5913 209.12C99.1646 208.373 98.4846 208 97.5513 208C96.9113 208 96.4046 208.213 96.0313 208.64C95.6579 209.04 95.4179 209.747 95.3113 210.76L95.2313 211.2C95.1779 212.347 94.8979 213.187 94.3913 213.72C93.8846 214.253 93.2579 214.52 92.5113 214.52C91.8179 214.52 91.2446 214.307 90.7913 213.88C90.3379 213.453 90.1113 212.88 90.1113 212.16C90.1113 211.067 90.4846 210.147 91.2313 209.4C92.0046 208.653 93.0179 208.093 94.2713 207.72C95.5246 207.347 96.8846 207.16 98.3513 207.16C100.725 207.16 102.551 207.747 103.831 208.92C105.138 210.067 105.791 211.947 105.791 214.56V223.4C105.791 224.6 106.351 225.2 107.471 225.2H108.351L108.711 225.52C108.205 226.16 107.645 226.653 107.031 227C106.445 227.347 105.605 227.52 104.511 227.52C103.338 227.52 102.405 227.253 101.711 226.72C101.045 226.16 100.605 225.427 100.391 224.52C99.5913 225.373 98.7646 226.107 97.9113 226.72C97.0846 227.307 96.0046 227.6 94.6713 227.6ZM97.1113 225.16C97.6446 225.16 98.1379 225.04 98.5912 224.8C99.0713 224.533 99.6313 224.133 100.271 223.6V216.88C100.005 216.933 99.7379 216.987 99.4713 217.04C99.2046 217.093 98.8979 217.147 98.5513 217.2C97.3246 217.52 96.3379 218.067 95.5913 218.84C94.8713 219.587 94.5113 220.6 94.5113 221.88C94.5113 222.973 94.7646 223.8 95.2713 224.36C95.7779 224.893 96.3913 225.16 97.1113 225.16ZM109.654 227V226.6L110.134 226.44C111.094 226.12 111.574 225.453 111.574 224.44V203.04C111.574 202.507 111.468 202.107 111.254 201.84C111.041 201.547 110.668 201.333 110.134 201.2L109.614 201.08V200.68L116.934 198.96L117.414 199.32L117.254 204.92V218.6C117.254 219.587 117.254 220.573 117.254 221.56C117.281 222.52 117.294 223.48 117.294 224.44C117.294 224.973 117.401 225.413 117.614 225.76C117.828 226.08 118.188 226.32 118.694 226.48L119.214 226.6V227H109.654ZM125.78 205.08C124.873 205.08 124.1 204.8 123.46 204.24C122.846 203.653 122.54 202.92 122.54 202.04C122.54 201.133 122.846 200.4 123.46 199.84C124.1 199.28 124.873 199 125.78 199C126.686 199 127.446 199.28 128.06 199.84C128.673 200.4 128.98 201.133 128.98 202.04C128.98 202.92 128.673 203.653 128.06 204.24C127.446 204.8 126.686 205.08 125.78 205.08ZM121.06 227V226.6L121.62 226.44C122.153 226.28 122.513 226.04 122.7 225.72C122.913 225.4 123.02 224.973 123.02 224.44V211.92C123.02 211.36 122.913 210.947 122.7 210.68C122.513 210.387 122.153 210.187 121.62 210.08L121.06 209.96V209.56L128.38 207.2L128.78 207.6L128.66 213.28V224.48C128.66 225.013 128.753 225.44 128.94 225.76C129.153 226.08 129.513 226.32 130.02 226.48L130.42 226.6V227H121.06ZM132.311 227V226.36L143.231 208.56H137.191C136.497 208.56 135.951 208.747 135.551 209.12C135.151 209.493 134.777 209.987 134.431 210.6L132.991 213.28H132.591L132.871 207.76H148.871V208.32L138.191 226.2H144.471C145.324 226.2 145.951 226 146.351 225.6C146.751 225.2 147.124 224.653 147.471 223.96L148.871 221H149.271L148.911 227H132.311ZM156.624 227.6C155.078 227.6 153.771 227.16 152.704 226.28C151.664 225.4 151.144 224.133 151.144 222.48C151.144 221.227 151.784 220.08 153.064 219.04C154.344 217.973 156.358 217.173 159.104 216.64C159.531 216.56 160.011 216.48 160.544 216.4C161.078 216.293 161.638 216.187 162.224 216.08V212.92C162.224 211.107 161.998 209.84 161.544 209.12C161.118 208.373 160.438 208 159.504 208C158.864 208 158.358 208.213 157.984 208.64C157.611 209.04 157.371 209.747 157.264 210.76L157.184 211.2C157.131 212.347 156.851 213.187 156.344 213.72C155.838 214.253 155.211 214.52 154.464 214.52C153.771 214.52 153.198 214.307 152.744 213.88C152.291 213.453 152.064 212.88 152.064 212.16C152.064 211.067 152.438 210.147 153.184 209.4C153.958 208.653 154.971 208.093 156.224 207.72C157.478 207.347 158.838 207.16 160.304 207.16C162.678 207.16 164.504 207.747 165.784 208.92C167.091 210.067 167.744 211.947 167.744 214.56V223.4C167.744 224.6 168.304 225.2 169.424 225.2H170.304L170.664 225.52C170.158 226.16 169.598 226.653 168.984 227C168.398 227.347 167.558 227.52 166.464 227.52C165.291 227.52 164.358 227.253 163.664 226.72C162.998 226.16 162.558 225.427 162.344 224.52C161.544 225.373 160.718 226.107 159.864 226.72C159.038 227.307 157.958 227.6 156.624 227.6ZM159.064 225.16C159.598 225.16 160.091 225.04 160.544 224.8C161.024 224.533 161.584 224.133 162.224 223.6V216.88C161.958 216.933 161.691 216.987 161.424 217.04C161.158 217.093 160.851 217.147 160.504 217.2C159.278 217.52 158.291 218.067 157.544 218.84C156.824 219.587 156.464 220.6 156.464 221.88C156.464 222.973 156.718 223.8 157.224 224.36C157.731 224.893 158.344 225.16 159.064 225.16ZM179.088 227.6C177.381 227.6 176.048 227.173 175.088 226.32C174.154 225.467 173.688 224.107 173.688 222.24V208.56H170.928V208.16L171.888 208C172.714 207.813 173.421 207.547 174.008 207.2C174.621 206.853 175.221 206.387 175.808 205.8L179.088 202.16H179.488L179.368 207.76H183.848V208.56H179.328V222.96C179.328 223.893 179.528 224.6 179.928 225.08C180.354 225.56 180.888 225.8 181.528 225.8C182.088 225.8 182.581 225.667 183.008 225.4C183.434 225.107 183.861 224.72 184.288 224.24L184.688 224.64C184.154 225.547 183.421 226.267 182.488 226.8C181.554 227.333 180.421 227.6 179.088 227.6ZM190.741 205.08C189.834 205.08 189.061 204.8 188.421 204.24C187.807 203.653 187.501 202.92 187.501 202.04C187.501 201.133 187.807 200.4 188.421 199.84C189.061 199.28 189.834 199 190.741 199C191.647 199 192.407 199.28 193.021 199.84C193.634 200.4 193.941 201.133 193.941 202.04C193.941 202.92 193.634 203.653 193.021 204.24C192.407 204.8 191.647 205.08 190.741 205.08ZM186.021 227V226.6L186.581 226.44C187.114 226.28 187.474 226.04 187.661 225.72C187.874 225.4 187.981 224.973 187.981 224.44V211.92C187.981 211.36 187.874 210.947 187.661 210.68C187.474 210.387 187.114 210.187 186.581 210.08L186.021 209.96V209.56L193.341 207.2L193.741 207.6L193.621 213.28V224.48C193.621 225.013 193.714 225.44 193.901 225.76C194.114 226.08 194.474 226.32 194.981 226.48L195.381 226.6V227H186.021ZM207.272 227.6C205.245 227.6 203.485 227.187 201.992 226.36C200.498 225.507 199.338 224.307 198.512 222.76C197.712 221.213 197.312 219.4 197.312 217.32C197.312 215.24 197.738 213.44 198.592 211.92C199.472 210.4 200.658 209.227 202.152 208.4C203.672 207.573 205.378 207.16 207.272 207.16C209.165 207.16 210.858 207.573 212.352 208.4C213.845 209.2 215.018 210.36 215.872 211.88C216.752 213.4 217.192 215.213 217.192 217.32C217.192 219.427 216.778 221.253 215.952 222.8C215.152 224.32 214.005 225.507 212.512 226.36C211.045 227.187 209.298 227.6 207.272 227.6ZM207.272 226.8C208.205 226.8 208.952 226.533 209.512 226C210.072 225.467 210.472 224.52 210.712 223.16C210.978 221.8 211.112 219.88 211.112 217.4C211.112 214.893 210.978 212.96 210.712 211.6C210.472 210.24 210.072 209.293 209.512 208.76C208.952 208.227 208.205 207.96 207.272 207.96C206.338 207.96 205.578 208.227 204.992 208.76C204.432 209.293 204.018 210.24 203.752 211.6C203.512 212.96 203.392 214.893 203.392 217.4C203.392 219.88 203.512 221.8 203.752 223.16C204.018 224.52 204.432 225.467 204.992 226C205.578 226.533 206.338 226.8 207.272 226.8ZM218.948 227V226.6L219.508 226.44C220.442 226.173 220.908 225.52 220.908 224.48V211.96C220.908 211.373 220.815 210.947 220.628 210.68C220.442 210.387 220.082 210.187 219.548 210.08L218.948 209.92V209.52L225.788 207.2L226.188 207.6L226.508 210C227.442 209.173 228.495 208.493 229.668 207.96C230.842 207.427 232.002 207.16 233.148 207.16C234.908 207.16 236.255 207.64 237.188 208.6C238.148 209.56 238.628 211.027 238.628 213V224.52C238.628 225.56 239.135 226.213 240.148 226.48L240.508 226.6V227H231.068V226.6L231.588 226.44C232.522 226.147 232.988 225.493 232.988 224.48V211.72C232.988 210.013 232.135 209.16 230.428 209.16C229.255 209.16 227.975 209.747 226.588 210.92V224.52C226.588 225.56 227.055 226.213 227.988 226.48L228.348 226.6V227H218.948Z" fill="white"/>
<path d="M129.564 130.745C129.699 130.986 130.004 131.071 130.245 130.936C130.486 130.8 130.571 130.496 130.436 130.255L129.564 130.745ZM130 79L129.632 78.6609L129.632 78.6609L130 79ZM205.5 63L205.756 63.4293L205.5 63ZM248.434 9.75193C248.297 9.51217 247.992 9.42887 247.752 9.56588L243.845 11.7985C243.605 11.9355 243.522 12.2409 243.659 12.4807C243.796 12.7205 244.101 12.8038 244.341 12.6667L247.814 10.6822L249.799 14.1552C249.936 14.3949 250.241 14.4782 250.481 14.3412C250.72 14.2042 250.804 13.8988 250.667 13.659L248.434 9.75193ZM130.436 130.255C127.462 124.969 123.888 116.058 122.847 106.546C121.806 97.0337 123.302 86.9933 130.367 79.3391L129.632 78.6609C122.298 86.6067 120.794 96.9829 121.853 106.654C122.911 116.325 126.538 125.365 129.564 130.745L130.436 130.255ZM130.367 79.3391C139.18 69.7918 149.421 70.7455 161.9 71.6861C174.354 72.6248 188.865 73.5137 205.756 63.4293L205.244 62.5707C188.635 72.4863 174.396 71.6252 161.975 70.6889C149.579 69.7545 138.819 68.7082 129.632 78.6609L130.367 79.3391ZM205.756 63.4293C232.691 47.3492 245.456 21.2276 248.482 10.1316L247.518 9.86844C244.544 20.7724 231.909 46.6508 205.244 62.5707L205.756 63.4293Z" fill="white"/>
</svg>
