<svg width="285" height="232" viewBox="0 0 285 232" fill="none" xmlns="http://www.w3.org/2000/svg">
<path d="M28.3164 172.16L24.3564 148.4C24.1964 147.413 23.6497 146.64 22.7164 146.08L22.5564 146L22.6364 145.6H32.0364L31.9964 146L31.4764 146.2C30.4631 146.653 30.0364 147.387 30.1964 148.4L32.7964 166.4L41.8764 148.28C42.3831 147.213 42.0897 146.493 40.9964 146.12L40.5964 146L40.6764 145.6H46.1164L46.0364 146L45.5964 146.12C44.3964 146.547 43.5031 147.333 42.9164 148.48L30.8764 172.16H28.3164ZM51.6683 149.92C50.9216 149.92 50.2683 149.68 49.7083 149.2C49.1749 148.693 48.9083 148.027 48.9083 147.2C48.9083 146.267 49.2283 145.507 49.8683 144.92C50.5349 144.307 51.2816 144 52.1083 144C52.9083 144 53.5616 144.253 54.0683 144.76C54.5749 145.267 54.8283 145.92 54.8283 146.72C54.8283 147.627 54.5083 148.387 53.8683 149C53.2283 149.613 52.4949 149.92 51.6683 149.92ZM47.9483 172.6C47.1216 172.6 46.4416 172.387 45.9083 171.96C45.3749 171.533 45.1083 170.907 45.1083 170.08C45.1083 169.6 45.1616 169.027 45.2683 168.36C45.3749 167.693 45.4949 167.027 45.6283 166.36L47.5083 157.36C47.7483 156.267 47.3616 155.493 46.3483 155.04L45.7083 154.72L45.7483 154.28L53.2683 152.12L53.6683 152.48L50.5483 166.96C50.4416 167.44 50.3616 167.853 50.3083 168.2C50.2549 168.52 50.2283 168.84 50.2283 169.16C50.2283 169.747 50.4949 170.04 51.0283 170.04C51.4283 170.04 51.8283 169.92 52.2283 169.68C52.6283 169.413 53.1349 168.987 53.7483 168.4L54.1083 168.76C53.4416 169.747 52.5883 170.64 51.5483 171.44C50.5349 172.213 49.3349 172.6 47.9483 172.6ZM61.2345 172.6C59.5545 172.6 58.1945 172.267 57.1545 171.6C56.1145 170.933 55.5945 169.987 55.5945 168.76C55.5945 168.12 55.8212 167.56 56.2745 167.08C56.7279 166.6 57.3145 166.36 58.0345 166.36C59.3679 166.36 60.1945 167.173 60.5145 168.8L60.7545 169.92C60.8879 170.48 61.0479 170.933 61.2345 171.28C61.4479 171.627 61.8479 171.8 62.4345 171.8C63.1012 171.8 63.6879 171.52 64.1945 170.96C64.7012 170.4 64.9545 169.627 64.9545 168.64C64.9545 167.893 64.7145 167.173 64.2345 166.48C63.7812 165.787 63.0079 165.027 61.9145 164.2C60.8212 163.347 59.9412 162.467 59.2745 161.56C58.6079 160.627 58.2745 159.52 58.2745 158.24C58.2745 157.12 58.5545 156.107 59.1145 155.2C59.7012 154.267 60.5412 153.533 61.6345 153C62.7279 152.44 64.0212 152.16 65.5145 152.16C67.2479 152.16 68.6079 152.507 69.5945 153.2C70.6079 153.893 71.1145 154.787 71.1145 155.88C71.1145 156.467 70.9412 156.96 70.5945 157.36C70.2479 157.733 69.7279 157.92 69.0345 157.92C67.7545 157.92 66.8879 157.147 66.4345 155.6L66.0345 154.48C65.9012 153.947 65.7412 153.573 65.5545 153.36C65.3679 153.147 65.0745 153.04 64.6745 153.04C64.2479 153.04 63.8079 153.28 63.3545 153.76C62.9012 154.213 62.6745 154.947 62.6745 155.96C62.6745 156.92 62.9545 157.8 63.5145 158.6C64.1012 159.373 64.9679 160.187 66.1145 161.04C67.2879 161.92 68.1412 162.773 68.6745 163.6C69.2345 164.427 69.5145 165.427 69.5145 166.6C69.5145 167.693 69.1945 168.693 68.5545 169.6C67.9145 170.507 66.9812 171.24 65.7545 171.8C64.5279 172.333 63.0212 172.6 61.2345 172.6ZM76.2036 172.6C75.2969 172.6 74.5103 172.333 73.8436 171.8C73.2036 171.24 72.8836 170.413 72.8836 169.32C72.8836 168.707 72.9503 168.04 73.0836 167.32C73.2169 166.6 73.3636 165.893 73.5236 165.2L75.2836 157.32C75.5236 156.28 75.1636 155.52 74.2036 155.04L73.4436 154.72L73.4836 154.28L81.0436 152.12L81.4036 152.44L78.6036 164.68C78.4436 165.347 78.3103 165.947 78.2036 166.48C78.0969 167.013 78.0436 167.507 78.0436 167.96C78.0436 168.547 78.1769 168.973 78.4436 169.24C78.7103 169.48 79.0569 169.6 79.4836 169.6C80.0969 169.6 80.7769 169.387 81.5236 168.96C82.2703 168.507 83.1369 167.813 84.1236 166.88C84.1503 166.72 84.1903 166.547 84.2436 166.36L85.6036 159.92C85.8169 158.88 86.0169 157.84 86.2036 156.8C86.4169 155.733 86.6169 154.667 86.8036 153.6L91.8436 152.12L92.2836 152.48L89.1236 167C88.9103 167.933 88.8036 168.667 88.8036 169.2C88.8036 169.76 89.0436 170.04 89.5236 170.04C89.8969 170.04 90.2969 169.893 90.7236 169.6C91.1503 169.28 91.6703 168.813 92.2836 168.2L92.7636 168.68C92.0969 169.667 91.2436 170.573 90.2036 171.4C89.1903 172.2 88.0303 172.6 86.7236 172.6C85.8969 172.6 85.2036 172.32 84.6436 171.76C84.1103 171.173 83.8436 170.347 83.8436 169.28C83.8436 168.88 83.8703 168.493 83.9236 168.12C82.5369 169.507 81.1903 170.6 79.8836 171.4C78.6036 172.2 77.3769 172.6 76.2036 172.6ZM99.0711 172.6C98.3244 172.6 97.6178 172.427 96.9511 172.08C96.2844 171.733 95.7378 171.16 95.3111 170.36C94.9111 169.56 94.7111 168.507 94.7111 167.2C94.7111 165.787 94.9911 164.373 95.5511 162.96C96.1111 161.52 96.8578 160.16 97.7911 158.88C98.7244 157.573 99.7644 156.427 100.911 155.44C102.058 154.427 103.244 153.627 104.471 153.04C105.698 152.453 106.858 152.16 107.951 152.16C108.484 152.16 108.978 152.267 109.431 152.48C109.911 152.667 110.364 152.933 110.791 153.28L114.031 152.04L114.351 152.24L110.871 167.56C110.684 168.307 110.591 168.92 110.591 169.4C110.591 169.96 110.844 170.24 111.351 170.24C111.724 170.24 112.151 170.067 112.631 169.72C113.138 169.373 113.711 168.907 114.351 168.32L114.671 168.64C114.271 169.28 113.764 169.907 113.151 170.52C112.564 171.107 111.898 171.6 111.151 172C110.431 172.4 109.658 172.6 108.831 172.6C107.924 172.6 107.191 172.333 106.631 171.8C106.071 171.24 105.791 170.387 105.791 169.24C105.791 168.867 105.804 168.507 105.831 168.16C104.764 169.36 103.631 170.4 102.431 171.28C101.258 172.16 100.138 172.6 99.0711 172.6ZM99.4311 165.4C99.4311 166.813 99.6578 167.84 100.111 168.48C100.591 169.093 101.218 169.4 101.991 169.4C102.631 169.4 103.271 169.2 103.911 168.8C104.551 168.4 105.244 167.827 105.991 167.08C106.044 166.76 106.111 166.427 106.191 166.08L108.711 154.56C108.364 154.133 107.951 153.84 107.471 153.68C106.991 153.52 106.564 153.44 106.191 153.44C105.044 153.44 103.844 154.12 102.591 155.48C101.604 156.573 100.831 158.013 100.271 159.8C99.7111 161.587 99.4311 163.453 99.4311 165.4ZM119.818 172.6C118.938 172.6 118.231 172.373 117.698 171.92C117.191 171.467 116.938 170.813 116.938 169.96C116.938 169.48 116.991 168.907 117.098 168.24C117.204 167.547 117.364 166.667 117.578 165.6L119.858 154.56C120.071 153.547 120.244 152.627 120.378 151.8C120.538 150.973 120.711 150.04 120.898 149C121.084 147.933 120.658 147.213 119.618 146.84L118.938 146.6L119.018 146.2L126.858 143.96L127.098 144.24L122.178 167.44C122.098 167.84 122.031 168.2 121.978 168.52C121.924 168.813 121.898 169.067 121.898 169.28C121.898 169.867 122.151 170.16 122.658 170.16C123.324 170.16 124.298 169.56 125.578 168.36L125.978 168.68C125.311 169.667 124.471 170.573 123.458 171.4C122.444 172.2 121.231 172.6 119.818 172.6ZM134.793 149.92C134.047 149.92 133.393 149.68 132.833 149.2C132.3 148.693 132.033 148.027 132.033 147.2C132.033 146.267 132.353 145.507 132.993 144.92C133.66 144.307 134.407 144 135.233 144C136.033 144 136.687 144.253 137.193 144.76C137.7 145.267 137.953 145.92 137.953 146.72C137.953 147.627 137.633 148.387 136.993 149C136.353 149.613 135.62 149.92 134.793 149.92ZM131.073 172.6C130.247 172.6 129.567 172.387 129.033 171.96C128.5 171.533 128.233 170.907 128.233 170.08C128.233 169.6 128.287 169.027 128.393 168.36C128.5 167.693 128.62 167.027 128.753 166.36L130.633 157.36C130.873 156.267 130.487 155.493 129.473 155.04L128.833 154.72L128.873 154.28L136.393 152.12L136.793 152.48L133.673 166.96C133.567 167.44 133.487 167.853 133.433 168.2C133.38 168.52 133.353 168.84 133.353 169.16C133.353 169.747 133.62 170.04 134.153 170.04C134.553 170.04 134.953 169.92 135.353 169.68C135.753 169.413 136.26 168.987 136.873 168.4L137.233 168.76C136.567 169.747 135.713 170.64 134.673 171.44C133.66 172.213 132.46 172.6 131.073 172.6ZM144.36 172.6C142.68 172.6 141.32 172.267 140.28 171.6C139.24 170.933 138.72 169.987 138.72 168.76C138.72 168.12 138.946 167.56 139.4 167.08C139.853 166.6 140.44 166.36 141.16 166.36C142.493 166.36 143.32 167.173 143.64 168.8L143.88 169.92C144.013 170.48 144.173 170.933 144.36 171.28C144.573 171.627 144.973 171.8 145.56 171.8C146.226 171.8 146.813 171.52 147.32 170.96C147.826 170.4 148.08 169.627 148.08 168.64C148.08 167.893 147.84 167.173 147.36 166.48C146.906 165.787 146.133 165.027 145.04 164.2C143.946 163.347 143.066 162.467 142.4 161.56C141.733 160.627 141.4 159.52 141.4 158.24C141.4 157.12 141.68 156.107 142.24 155.2C142.826 154.267 143.666 153.533 144.76 153C145.853 152.44 147.146 152.16 148.64 152.16C150.373 152.16 151.733 152.507 152.72 153.2C153.733 153.893 154.24 154.787 154.24 155.88C154.24 156.467 154.066 156.96 153.72 157.36C153.373 157.733 152.853 157.92 152.16 157.92C150.88 157.92 150.013 157.147 149.56 155.6L149.16 154.48C149.026 153.947 148.866 153.573 148.68 153.36C148.493 153.147 148.2 153.04 147.8 153.04C147.373 153.04 146.933 153.28 146.48 153.76C146.026 154.213 145.8 154.947 145.8 155.96C145.8 156.92 146.08 157.8 146.64 158.6C147.226 159.373 148.093 160.187 149.24 161.04C150.413 161.92 151.266 162.773 151.8 163.6C152.36 164.427 152.64 165.427 152.64 166.6C152.64 167.693 152.32 168.693 151.68 169.6C151.04 170.507 150.106 171.24 148.88 171.8C147.653 172.333 146.146 172.6 144.36 172.6ZM162.489 149.92C161.742 149.92 161.089 149.68 160.529 149.2C159.995 148.693 159.729 148.027 159.729 147.2C159.729 146.267 160.049 145.507 160.689 144.92C161.355 144.307 162.102 144 162.929 144C163.729 144 164.382 144.253 164.889 144.76C165.395 145.267 165.649 145.92 165.649 146.72C165.649 147.627 165.329 148.387 164.689 149C164.049 149.613 163.315 149.92 162.489 149.92ZM158.769 172.6C157.942 172.6 157.262 172.387 156.729 171.96C156.195 171.533 155.929 170.907 155.929 170.08C155.929 169.6 155.982 169.027 156.089 168.36C156.195 167.693 156.315 167.027 156.449 166.36L158.329 157.36C158.569 156.267 158.182 155.493 157.169 155.04L156.529 154.72L156.569 154.28L164.089 152.12L164.489 152.48L161.369 166.96C161.262 167.44 161.182 167.853 161.129 168.2C161.075 168.52 161.049 168.84 161.049 169.16C161.049 169.747 161.315 170.04 161.849 170.04C162.249 170.04 162.649 169.92 163.049 169.68C163.449 169.413 163.955 168.987 164.569 168.4L164.929 168.76C164.262 169.747 163.409 170.64 162.369 171.44C161.355 172.213 160.155 172.6 158.769 172.6ZM174.015 172.6C172.015 172.6 170.388 171.947 169.135 170.64C167.882 169.333 167.255 167.48 167.255 165.08C167.255 163.373 167.548 161.747 168.135 160.2C168.722 158.653 169.535 157.28 170.575 156.08C171.642 154.853 172.868 153.893 174.255 153.2C175.642 152.507 177.148 152.16 178.775 152.16C180.455 152.16 181.735 152.547 182.615 153.32C183.522 154.067 183.975 155.067 183.975 156.32C183.975 157.36 183.482 158.387 182.495 159.4C181.535 160.413 180.175 161.333 178.415 162.16C176.655 162.96 174.588 163.573 172.215 164C172.242 165.84 172.642 167.187 173.415 168.04C174.188 168.893 175.255 169.32 176.615 169.32C177.762 169.32 178.815 169.013 179.775 168.4C180.735 167.76 181.548 167.013 182.215 166.16L182.615 166.44C182.082 167.48 181.388 168.467 180.535 169.4C179.708 170.333 178.748 171.107 177.655 171.72C176.562 172.307 175.348 172.6 174.015 172.6ZM178.495 153.24C177.882 153.24 177.215 153.507 176.495 154.04C175.802 154.573 175.135 155.307 174.495 156.24C173.882 157.147 173.362 158.2 172.935 159.4C172.535 160.573 172.295 161.827 172.215 163.16C175.148 162.36 177.228 161.307 178.455 160C179.708 158.693 180.335 157.213 180.335 155.56C180.335 154.76 180.162 154.173 179.815 153.8C179.468 153.427 179.028 153.24 178.495 153.24ZM185.297 172.28L184.897 172L187.937 157.36C188.07 156.667 188.03 156.16 187.817 155.84C187.604 155.493 187.244 155.213 186.737 155L186.137 154.72L186.217 154.32L193.177 152.12L193.577 152.48L192.497 159.08C193.057 157.8 193.71 156.64 194.457 155.6C195.204 154.56 195.99 153.733 196.817 153.12C197.644 152.48 198.47 152.16 199.297 152.16C200.124 152.16 200.79 152.387 201.297 152.84C201.804 153.267 202.057 153.84 202.057 154.56C202.057 155.307 201.83 155.92 201.377 156.4C200.95 156.88 200.364 157.12 199.617 157.12C199.03 157.12 198.47 156.973 197.937 156.68C197.404 156.36 196.884 155.907 196.377 155.32C195.444 156.013 194.644 156.92 193.977 158.04C193.31 159.133 192.697 160.333 192.137 161.64L191.737 163.48C191.444 164.893 191.164 166.307 190.897 167.72C190.63 169.133 190.364 170.56 190.097 172L185.297 172.28ZM206.008 172.6C205.102 172.6 204.315 172.333 203.648 171.8C203.008 171.24 202.688 170.413 202.688 169.32C202.688 168.707 202.755 168.04 202.888 167.32C203.022 166.6 203.168 165.893 203.328 165.2L205.088 157.32C205.328 156.28 204.968 155.52 204.008 155.04L203.248 154.72L203.288 154.28L210.848 152.12L211.208 152.44L208.408 164.68C208.248 165.347 208.115 165.947 208.008 166.48C207.902 167.013 207.848 167.507 207.848 167.96C207.848 168.547 207.982 168.973 208.248 169.24C208.515 169.48 208.862 169.6 209.288 169.6C209.902 169.6 210.582 169.387 211.328 168.96C212.075 168.507 212.942 167.813 213.928 166.88C213.955 166.72 213.995 166.547 214.048 166.36L215.408 159.92C215.622 158.88 215.822 157.84 216.008 156.8C216.222 155.733 216.422 154.667 216.608 153.6L221.648 152.12L222.088 152.48L218.928 167C218.715 167.933 218.608 168.667 218.608 169.2C218.608 169.76 218.848 170.04 219.328 170.04C219.702 170.04 220.102 169.893 220.528 169.6C220.955 169.28 221.475 168.813 222.088 168.2L222.568 168.68C221.902 169.667 221.048 170.573 220.008 171.4C218.995 172.2 217.835 172.6 216.528 172.6C215.702 172.6 215.008 172.32 214.448 171.76C213.915 171.173 213.648 170.347 213.648 169.28C213.648 168.88 213.675 168.493 213.728 168.12C212.342 169.507 210.995 170.6 209.688 171.4C208.408 172.2 207.182 172.6 206.008 172.6ZM224.476 172.28L224.116 172L227.196 157.28C227.436 156.24 227.062 155.493 226.076 155.04L225.396 154.72L225.436 154.32L232.876 152.12L233.236 152.44L232.316 157.28C233.702 155.707 235.116 154.467 236.556 153.56C237.996 152.627 239.356 152.16 240.636 152.16C241.489 152.16 242.196 152.427 242.756 152.96C243.316 153.467 243.596 154.267 243.596 155.36C243.596 155.92 243.542 156.507 243.436 157.12C243.329 157.707 243.196 158.32 243.036 158.96L240.916 167.48C240.809 167.907 240.729 168.267 240.676 168.56C240.622 168.827 240.596 169.067 240.596 169.28C240.596 169.84 240.822 170.12 241.276 170.12C242.022 170.12 242.969 169.52 244.116 168.32L244.516 168.72C243.849 169.707 242.969 170.6 241.876 171.4C240.782 172.2 239.569 172.6 238.236 172.6C237.356 172.6 236.676 172.4 236.196 172C235.716 171.573 235.476 170.987 235.476 170.24C235.476 169.68 235.542 169.107 235.676 168.52C235.809 167.907 235.956 167.28 236.116 166.64L237.676 160.4C237.889 159.547 238.062 158.787 238.196 158.12C238.329 157.453 238.396 156.84 238.396 156.28C238.396 155.8 238.289 155.467 238.076 155.28C237.862 155.067 237.569 154.96 237.196 154.96C236.556 154.96 235.796 155.24 234.916 155.8C234.062 156.36 233.116 157.24 232.076 158.44L230.956 163.48C230.662 164.893 230.382 166.307 230.116 167.72C229.849 169.133 229.582 170.56 229.316 172L224.476 172.28ZM250.905 181.44C248.665 181.44 246.892 181.093 245.585 180.4C244.305 179.707 243.665 178.693 243.665 177.36C243.665 176.533 243.958 175.773 244.545 175.08C245.132 174.413 245.852 173.827 246.705 173.32C247.585 172.813 248.478 172.413 249.385 172.12C248.478 171.88 247.772 171.56 247.265 171.16C246.758 170.733 246.505 170.2 246.505 169.56C246.505 168.92 246.878 168.173 247.625 167.32C248.398 166.44 249.305 165.6 250.345 164.8C249.572 164.267 248.985 163.6 248.585 162.8C248.185 162 247.985 161.16 247.985 160.28C247.985 158.813 248.358 157.467 249.105 156.24C249.852 155.013 250.852 154.027 252.105 153.28C253.385 152.533 254.785 152.16 256.305 152.16C257.318 152.16 258.252 152.307 259.105 152.6C259.985 152.867 260.718 153.28 261.305 153.84C262.158 153.707 262.972 153.507 263.745 153.24C264.545 152.947 265.305 152.587 266.025 152.16L266.305 152.44L265.905 154.52H261.905C262.545 155.373 262.865 156.4 262.865 157.6C262.865 159.227 262.505 160.667 261.785 161.92C261.092 163.173 260.118 164.16 258.865 164.88C257.612 165.573 256.145 165.92 254.465 165.92C253.185 165.92 252.052 165.68 251.065 165.2L250.465 166.2C250.252 166.52 250.185 166.84 250.265 167.16C250.345 167.48 250.625 167.68 251.105 167.76L257.665 169.08C259.878 169.533 261.425 170.12 262.305 170.84C263.212 171.56 263.665 172.547 263.665 173.8C263.665 175.293 263.105 176.613 261.985 177.76C260.892 178.907 259.385 179.8 257.465 180.44C255.545 181.107 253.358 181.44 250.905 181.44ZM255.185 165.12C256.065 165.12 256.812 164.613 257.425 163.6C258.065 162.587 258.385 160.827 258.385 158.32C258.385 156.613 258.158 155.293 257.705 154.36C257.252 153.427 256.678 152.96 255.985 152.96C254.918 152.987 254.105 153.613 253.545 154.84C252.985 156.04 252.705 157.653 252.705 159.68C252.705 161.147 252.892 162.427 253.265 163.52C253.665 164.613 254.305 165.147 255.185 165.12ZM247.705 175.96C247.705 177.293 248.185 178.333 249.145 179.08C250.105 179.853 251.398 180.24 253.025 180.24C255.078 180.24 256.692 179.893 257.865 179.2C259.038 178.507 259.625 177.507 259.625 176.2C259.625 175.427 259.278 174.813 258.585 174.36C257.918 173.907 256.732 173.52 255.025 173.2L250.345 172.32C250.212 172.293 250.092 172.267 249.985 172.24C249.292 172.667 248.732 173.187 248.305 173.8C247.905 174.44 247.705 175.16 247.705 175.96ZM47.5783 198.16C49.3116 198.16 50.7916 198.52 52.0183 199.24C53.2449 199.933 54.1783 200.893 54.8183 202.12C55.4849 203.32 55.8183 204.693 55.8183 206.24C55.8183 206.533 55.8049 206.84 55.7783 207.16C55.7516 207.453 55.6983 207.72 55.6183 207.96H43.6983C43.7249 210.84 44.2316 212.92 45.2183 214.2C46.2316 215.453 47.7249 216.08 49.6983 216.08C51.0316 216.08 52.1116 215.867 52.9383 215.44C53.7649 215.013 54.5383 214.387 55.2583 213.56L55.6583 213.92C54.8316 215.387 53.7249 216.533 52.3383 217.36C50.9783 218.187 49.3383 218.6 47.4183 218.6C45.5249 218.6 43.8449 218.2 42.3783 217.4C40.9116 216.573 39.7649 215.4 38.9383 213.88C38.1116 212.36 37.6983 210.547 37.6983 208.44C37.6983 206.253 38.1783 204.4 39.1383 202.88C40.0983 201.333 41.3249 200.16 42.8183 199.36C44.3383 198.56 45.9249 198.16 47.5783 198.16ZM47.4583 198.96C46.6849 198.96 46.0183 199.2 45.4583 199.68C44.9249 200.133 44.4983 200.96 44.1783 202.16C43.8849 203.333 43.7249 205 43.6983 207.16H50.5383C50.8049 204.253 50.6983 202.16 50.2183 200.88C49.7383 199.6 48.8183 198.96 47.4583 198.96ZM57.2973 218V217.6L58.3373 217.36C58.9507 217.227 59.444 217.027 59.8173 216.76C60.2173 216.467 60.5907 216.067 60.9373 215.56L65.2573 209.36L59.8173 200.72C59.5507 200.32 59.3107 200.013 59.0973 199.8C58.884 199.587 58.5507 199.427 58.0973 199.32L57.5373 199.16V198.76H67.6973V199.16L67.0173 199.32C66.084 199.613 65.8973 200.2 66.4573 201.08L69.7373 206.16L73.2973 201.24C73.5907 200.787 73.724 200.413 73.6973 200.12C73.6973 199.8 73.444 199.573 72.9373 199.44L71.9373 199.16V198.76H77.7773V199.16L76.8173 199.4C76.2307 199.56 75.7773 199.773 75.4573 200.04C75.1373 200.28 74.7907 200.667 74.4173 201.2L70.2173 206.88L75.6973 215.4C76.364 216.44 77.2573 217.107 78.3773 217.4L79.0173 217.6V218H67.9773V217.6L68.6573 217.44C69.1107 217.333 69.3907 217.12 69.4973 216.8C69.6307 216.453 69.564 216.067 69.2973 215.64L65.7773 210.16L61.9773 215.68C61.6573 216.107 61.5507 216.48 61.6573 216.8C61.7907 217.093 62.0707 217.293 62.4973 217.4L63.2973 217.6V218H57.2973ZM79.5305 227.2V226.8L80.0105 226.64C80.9971 226.373 81.4905 225.733 81.4905 224.72V202.96C81.4905 202.373 81.3838 201.933 81.1705 201.64C80.9838 201.347 80.6238 201.147 80.0905 201.04L79.5305 200.92V200.52L86.3305 198.2L86.7305 198.6L87.0905 199.84C87.9705 199.307 88.9438 198.893 90.0105 198.6C91.1038 198.307 92.2238 198.16 93.3705 198.16C95.6638 198.16 97.4771 199.04 98.8105 200.8C100.17 202.533 100.85 205.027 100.85 208.28C100.85 211.48 100.104 214 98.6105 215.84C97.1438 217.68 95.0638 218.6 92.3705 218.6C90.2638 218.6 88.4905 218.293 87.0505 217.68V224.6C87.0505 225.667 87.5305 226.333 88.4905 226.6L89.2505 226.8V227.2H79.5305ZM90.4505 217.44C91.7838 217.44 92.8371 216.747 93.6105 215.36C94.4105 213.973 94.8105 211.667 94.8105 208.44C94.8105 205.213 94.4371 202.96 93.6905 201.68C92.9438 200.373 91.8638 199.72 90.4505 199.72C89.4638 199.72 88.3705 200.04 87.1705 200.68V216.8C88.1838 217.227 89.2771 217.44 90.4505 217.44ZM113.01 218.6C110.983 218.6 109.223 218.187 107.73 217.36C106.237 216.507 105.077 215.307 104.25 213.76C103.45 212.213 103.05 210.4 103.05 208.32C103.05 206.24 103.477 204.44 104.33 202.92C105.21 201.4 106.397 200.227 107.89 199.4C109.41 198.573 111.117 198.16 113.01 198.16C114.903 198.16 116.597 198.573 118.09 199.4C119.583 200.2 120.757 201.36 121.61 202.88C122.49 204.4 122.93 206.213 122.93 208.32C122.93 210.427 122.517 212.253 121.69 213.8C120.89 215.32 119.743 216.507 118.25 217.36C116.783 218.187 115.037 218.6 113.01 218.6ZM113.01 217.8C113.943 217.8 114.69 217.533 115.25 217C115.81 216.467 116.21 215.52 116.45 214.16C116.717 212.8 116.85 210.88 116.85 208.4C116.85 205.893 116.717 203.96 116.45 202.6C116.21 201.24 115.81 200.293 115.25 199.76C114.69 199.227 113.943 198.96 113.01 198.96C112.077 198.96 111.317 199.227 110.73 199.76C110.17 200.293 109.757 201.24 109.49 202.6C109.25 203.96 109.13 205.893 109.13 208.4C109.13 210.88 109.25 212.8 109.49 214.16C109.757 215.52 110.17 216.467 110.73 217C111.317 217.533 112.077 217.8 113.01 217.8ZM124.687 218V217.6L125.287 217.44C125.82 217.28 126.18 217.04 126.367 216.72C126.58 216.4 126.687 215.987 126.687 215.48V202.96C126.687 202.373 126.58 201.947 126.367 201.68C126.18 201.387 125.82 201.187 125.287 201.08L124.687 200.92V200.52L131.567 198.2L131.967 198.6L132.327 202.04V202.36C132.7 201.613 133.18 200.933 133.767 200.32C134.38 199.68 135.047 199.16 135.767 198.76C136.513 198.36 137.247 198.16 137.967 198.16C138.98 198.16 139.753 198.44 140.287 199C140.82 199.56 141.087 200.267 141.087 201.12C141.087 202.027 140.82 202.733 140.287 203.24C139.78 203.72 139.167 203.96 138.447 203.96C137.327 203.96 136.34 203.4 135.487 202.28L135.407 202.2C135.14 201.827 134.833 201.627 134.487 201.6C134.14 201.547 133.82 201.707 133.527 202.08C133.26 202.32 133.033 202.613 132.847 202.96C132.687 203.28 132.527 203.653 132.367 204.08V215.24C132.367 216.307 132.833 216.973 133.767 217.24L135.047 217.6V218H124.687ZM150.295 218.6C148.588 218.6 147.255 218.173 146.295 217.32C145.361 216.467 144.895 215.107 144.895 213.24V199.56H142.135V199.16L143.095 199C143.921 198.813 144.628 198.547 145.215 198.2C145.828 197.853 146.428 197.387 147.015 196.8L150.295 193.16H150.695L150.575 198.76H155.055V199.56H150.535V213.96C150.535 214.893 150.735 215.6 151.135 216.08C151.561 216.56 152.095 216.8 152.735 216.8C153.295 216.8 153.788 216.667 154.215 216.4C154.641 216.107 155.068 215.72 155.495 215.24L155.895 215.64C155.361 216.547 154.628 217.267 153.695 217.8C152.761 218.333 151.628 218.6 150.295 218.6ZM161.948 196.08C161.041 196.08 160.268 195.8 159.628 195.24C159.014 194.653 158.708 193.92 158.708 193.04C158.708 192.133 159.014 191.4 159.628 190.84C160.268 190.28 161.041 190 161.948 190C162.854 190 163.614 190.28 164.228 190.84C164.841 191.4 165.148 192.133 165.148 193.04C165.148 193.92 164.841 194.653 164.228 195.24C163.614 195.8 162.854 196.08 161.948 196.08ZM157.228 218V217.6L157.788 217.44C158.321 217.28 158.681 217.04 158.868 216.72C159.081 216.4 159.188 215.973 159.188 215.44V202.92C159.188 202.36 159.081 201.947 158.868 201.68C158.681 201.387 158.321 201.187 157.788 201.08L157.228 200.96V200.56L164.548 198.2L164.948 198.6L164.828 204.28V215.48C164.828 216.013 164.921 216.44 165.108 216.76C165.321 217.08 165.681 217.32 166.188 217.48L166.588 217.6V218H157.228ZM178.399 198.16C180.132 198.16 181.612 198.52 182.839 199.24C184.065 199.933 184.999 200.893 185.639 202.12C186.305 203.32 186.639 204.693 186.639 206.24C186.639 206.533 186.625 206.84 186.599 207.16C186.572 207.453 186.519 207.72 186.439 207.96H174.519C174.545 210.84 175.052 212.92 176.039 214.2C177.052 215.453 178.545 216.08 180.519 216.08C181.852 216.08 182.932 215.867 183.759 215.44C184.585 215.013 185.359 214.387 186.079 213.56L186.479 213.92C185.652 215.387 184.545 216.533 183.159 217.36C181.799 218.187 180.159 218.6 178.239 218.6C176.345 218.6 174.665 218.2 173.199 217.4C171.732 216.573 170.585 215.4 169.759 213.88C168.932 212.36 168.519 210.547 168.519 208.44C168.519 206.253 168.999 204.4 169.959 202.88C170.919 201.333 172.145 200.16 173.639 199.36C175.159 198.56 176.745 198.16 178.399 198.16ZM178.279 198.96C177.505 198.96 176.839 199.2 176.279 199.68C175.745 200.133 175.319 200.96 174.999 202.16C174.705 203.333 174.545 205 174.519 207.16H181.359C181.625 204.253 181.519 202.16 181.039 200.88C180.559 199.6 179.639 198.96 178.279 198.96ZM188.632 218V217.6L189.232 217.44C189.765 217.28 190.125 217.04 190.312 216.72C190.525 216.4 190.632 215.987 190.632 215.48V202.96C190.632 202.373 190.525 201.947 190.312 201.68C190.125 201.387 189.765 201.187 189.232 201.08L188.632 200.92V200.52L195.512 198.2L195.912 198.6L196.272 202.04V202.36C196.645 201.613 197.125 200.933 197.712 200.32C198.325 199.68 198.992 199.16 199.712 198.76C200.459 198.36 201.192 198.16 201.912 198.16C202.925 198.16 203.699 198.44 204.232 199C204.765 199.56 205.032 200.267 205.032 201.12C205.032 202.027 204.765 202.733 204.232 203.24C203.725 203.72 203.112 203.96 202.392 203.96C201.272 203.96 200.285 203.4 199.432 202.28L199.352 202.2C199.085 201.827 198.779 201.627 198.432 201.6C198.085 201.547 197.765 201.707 197.472 202.08C197.205 202.32 196.979 202.613 196.792 202.96C196.632 203.28 196.472 203.653 196.312 204.08V215.24C196.312 216.307 196.779 216.973 197.712 217.24L198.992 217.6V218H188.632ZM215.703 198.16C217.437 198.16 218.917 198.52 220.143 199.24C221.37 199.933 222.303 200.893 222.943 202.12C223.61 203.32 223.943 204.693 223.943 206.24C223.943 206.533 223.93 206.84 223.903 207.16C223.877 207.453 223.823 207.72 223.743 207.96H211.823C211.85 210.84 212.357 212.92 213.343 214.2C214.357 215.453 215.85 216.08 217.823 216.08C219.157 216.08 220.237 215.867 221.063 215.44C221.89 215.013 222.663 214.387 223.383 213.56L223.783 213.92C222.957 215.387 221.85 216.533 220.463 217.36C219.103 218.187 217.463 218.6 215.543 218.6C213.65 218.6 211.97 218.2 210.503 217.4C209.037 216.573 207.89 215.4 207.063 213.88C206.237 212.36 205.823 210.547 205.823 208.44C205.823 206.253 206.303 204.4 207.263 202.88C208.223 201.333 209.45 200.16 210.943 199.36C212.463 198.56 214.05 198.16 215.703 198.16ZM215.583 198.96C214.81 198.96 214.143 199.2 213.583 199.68C213.05 200.133 212.623 200.96 212.303 202.16C212.01 203.333 211.85 205 211.823 207.16H218.663C218.93 204.253 218.823 202.16 218.343 200.88C217.863 199.6 216.943 198.96 215.583 198.96ZM225.937 218V217.6L226.497 217.44C227.43 217.173 227.897 216.52 227.897 215.48V202.96C227.897 202.373 227.803 201.947 227.617 201.68C227.43 201.387 227.07 201.187 226.537 201.08L225.937 200.92V200.52L232.777 198.2L233.177 198.6L233.497 201C234.43 200.173 235.483 199.493 236.657 198.96C237.83 198.427 238.99 198.16 240.137 198.16C241.897 198.16 243.243 198.64 244.177 199.6C245.137 200.56 245.617 202.027 245.617 204V215.52C245.617 216.56 246.123 217.213 247.137 217.48L247.497 217.6V218H238.057V217.6L238.577 217.44C239.51 217.147 239.977 216.493 239.977 215.48V202.72C239.977 201.013 239.123 200.16 237.417 200.16C236.243 200.16 234.963 200.747 233.577 201.92V215.52C233.577 216.56 234.043 217.213 234.977 217.48L235.337 217.6V218H225.937Z" fill="white"/>
<path d="M143.564 121.745C143.699 121.986 144.004 122.071 144.245 121.936C144.486 121.8 144.571 121.496 144.436 121.255L143.564 121.745ZM144 70L143.632 69.6609L144 70ZM219.5 54L219.756 54.4293L219.5 54ZM262.434 0.751931C262.297 0.512172 261.992 0.428873 261.752 0.565878L257.845 2.7985C257.605 2.93551 257.522 3.24094 257.659 3.48069C257.796 3.72045 258.101 3.80375 258.341 3.66675L261.814 1.68219L263.799 5.15516C263.936 5.39492 264.241 5.47822 264.481 5.34122C264.72 5.20421 264.804 4.89878 264.667 4.65902L262.434 0.751931ZM144.436 121.255C141.462 115.969 137.888 107.058 136.847 97.5456C135.806 88.0337 137.302 77.9933 144.367 70.3391L143.632 69.6609C136.298 77.6067 134.794 87.9829 135.853 97.6544C136.911 107.325 140.538 116.365 143.564 121.745L144.436 121.255ZM144.367 70.3391C153.18 60.7918 163.421 61.7455 175.9 62.6861C188.354 63.6248 202.865 64.5137 219.756 54.4293L219.244 53.5707C202.635 63.4863 188.396 62.6252 175.975 61.6889C163.579 60.7545 152.819 59.7082 143.632 69.6609L144.367 70.3391ZM219.756 54.4293C246.691 38.3492 259.456 12.2276 262.482 1.13156L261.518 0.868441C258.544 11.7724 245.909 37.6508 219.244 53.5707L219.756 54.4293Z" fill="white"/>
</svg>
