<svg width="48" height="48" viewBox="0 0 48 48" fill="none" xmlns="http://www.w3.org/2000/svg">
<path d="M48 24C48 37.2548 37.2548 48 24 48C10.7452 48 0 37.2548 0 24C0 10.7452 10.7452 0 24 0C37.2548 0 48 10.7452 48 24Z" fill="black"/>
<path fill-rule="evenodd" clip-rule="evenodd" d="M24 47C36.7025 47 47 36.7025 47 24C47 11.2975 36.7025 1 24 1C11.2975 1 1 11.2975 1 24C1 36.7025 11.2975 47 24 47ZM24 48C37.2548 48 48 37.2548 48 24C48 10.7452 37.2548 0 24 0C10.7452 0 0 10.7452 0 24C0 37.2548 10.7452 48 24 48Z" fill="white"/>
<path fill-rule="evenodd" clip-rule="evenodd" d="M15 15.8136C15 15.5877 15.1832 15.4045 15.4091 15.4045H21.4227C21.6487 15.4045 21.8318 15.5877 21.8318 15.8136C21.8318 16.0396 21.6487 16.2227 21.4227 16.2227H15.8182V21.8273C15.8182 22.0532 15.635 22.2364 15.4091 22.2364C15.1832 22.2364 15 22.0532 15 21.8273V15.8136Z" fill="white"/>
<path fill-rule="evenodd" clip-rule="evenodd" d="M33 32.1363C33 32.3623 32.8168 32.5454 32.5909 32.5454L26.5773 32.5454C26.3513 32.5454 26.1682 32.3623 26.1682 32.1363C26.1682 31.9104 26.3513 31.7272 26.5773 31.7272L32.1818 31.7272L32.1818 26.1227C32.1818 25.8967 32.365 25.7136 32.5909 25.7136C32.8168 25.7136 33 25.8967 33 26.1227L33 32.1363Z" fill="white"/>
<path fill-rule="evenodd" clip-rule="evenodd" d="M32.5909 15.4045C32.8168 15.4045 33 15.5877 33 15.8136L33 21.8273C33 22.0532 32.8168 22.2364 32.5909 22.2364C32.365 22.2364 32.1818 22.0532 32.1818 21.8273L32.1818 16.2227L26.5773 16.2227C26.3513 16.2227 26.1682 16.0396 26.1682 15.8136C26.1682 15.5877 26.3513 15.4045 26.5773 15.4045L32.5909 15.4045Z" fill="white"/>
<path fill-rule="evenodd" clip-rule="evenodd" d="M15.4091 32.5454C15.1832 32.5454 15 32.3623 15 32.1363L15 26.1227C15 25.8967 15.1832 25.7136 15.4091 25.7136C15.635 25.7136 15.8182 25.8967 15.8182 26.1227L15.8182 31.7272L21.4227 31.7272C21.6487 31.7272 21.8318 31.9104 21.8318 32.1363C21.8318 32.3623 21.6487 32.5454 21.4227 32.5454L15.4091 32.5454Z" fill="white"/>
</svg>
