<svg width="64" height="163" viewBox="0 0 64 163" fill="none" xmlns="http://www.w3.org/2000/svg">
<path fill-rule="evenodd" clip-rule="evenodd" d="M17.0066 2.88906C18.667 0.926767 21.033 -1.87006e-06 23.9449 -1.74277e-06C26.3702 -1.63676e-06 28.4926 1.25322 30.3072 3.48462C32.1963 5.75421 33.5376 9.21776 34.4166 13.7444L34.4178 13.7507C34.5493 14.452 34.6801 15.2362 34.8103 16.1026C34.9328 16.7157 35.0552 17.3498 35.1775 18.005L39.4799 18.005C42.4079 18.005 44.2115 17.6271 45.1221 17.0538L45.1402 17.0424L45.1588 17.0318C46.0294 16.5343 46.4749 15.7802 46.4749 14.585C46.4749 13.792 46.2234 13.2587 45.7764 12.8676L45.7644 12.857L45.7526 12.8461C45.3491 12.4694 44.4773 12.1071 42.8853 11.9395L42.848 11.9356L42.1606 11.8106C40.2155 11.7108 38.594 11.2226 37.4912 10.175C36.4224 9.1597 35.8799 7.87779 35.8799 6.395C35.8799 5.04502 36.3034 3.85849 37.1917 2.91464C38.1041 1.94523 39.3164 1.49501 40.7149 1.49501C42.7463 1.49501 44.4989 2.19973 45.907 3.60789L45.9132 3.6141L45.9193 3.62041C47.2656 5.0147 48.2457 6.81217 48.8883 8.96953C49.5257 11.1093 49.8399 13.4166 49.8399 15.885C49.8399 19.8945 48.8488 23.1354 46.7244 25.4578C44.592 27.8815 41.1985 28.975 36.8149 28.975L22.4499 28.975C21.6126 28.975 21.1708 29.1718 20.9385 29.3886C20.7192 29.5932 20.5249 29.9675 20.5249 30.705L20.5249 32.5152L19.1248 34.0903L18.3842 33.504C18.2919 33.431 18.2012 33.3571 18.1121 33.2825L18.472 34.6324C18.6943 35.3655 18.9721 35.6733 19.1838 35.7969L19.2097 35.812L19.2346 35.8286C19.5456 36.0359 20.0074 36.1806 20.6949 36.1806L41.0399 36.1806C41.9137 36.1806 42.3276 36.0139 42.4952 35.8798L42.5375 35.846L42.5831 35.817C42.728 35.7248 42.965 35.4564 43.1144 34.7095L43.1206 34.6785L43.5867 32.9306L45.7231 32.9306L49.9208 45.379L48.5815 46.7183L45.0246 47.0905C45.3676 47.3647 45.6998 47.6556 46.0212 47.963C47.1279 49.0236 48.0369 50.1861 48.7391 51.45L48.7428 51.4567L48.7464 51.4634C49.4605 52.7963 49.8399 54.149 49.8399 55.5106C49.8399 57.342 49.3291 58.8957 48.1646 60.0048C47.5366 60.6029 46.8172 61.0269 46.0205 61.2833L48.0621 61.2833L48.4566 63.6504C48.7419 64.9036 49.1402 65.9407 49.6359 66.7796L49.6408 66.7879L49.6455 66.7963C50.1538 67.6956 50.8473 68.5937 51.7389 69.4881L57.9649 75.0983L57.9649 77.215L48.8649 77.02L48.8649 84.2783L45.5649 84.2783L45.5649 76.9333L23.1649 76.9333C21.7812 76.9333 20.9034 77.2303 20.372 77.6667C19.8131 78.1687 19.5499 78.7605 19.5499 79.5083C19.5499 80.2442 19.7209 80.8523 20.0368 81.3654C20.4571 81.9728 21.0233 82.6006 21.7493 83.2459L22.542 83.9505L20.5949 85.8976L19.9279 85.5053C18.3009 84.5482 17.0079 83.229 16.0567 81.5645C15.0852 79.8644 14.6249 77.8426 14.6249 75.5433C14.6249 72.6069 15.3609 70.1751 16.9575 68.379L16.9668 68.3685C18.618 66.5625 21.1557 65.7683 24.3349 65.7683L45.5649 65.7683L45.5649 61.4098C45.0783 61.5241 44.5657 61.5806 44.0299 61.5806C42.3507 61.5806 40.9144 61.0793 39.8599 59.9694L39.859 59.9684C38.8969 58.9529 38.4149 57.7075 38.4149 56.2906C38.4149 54.0997 39.5206 52.2416 41.4843 50.727L41.6263 50.585L41.6937 50.5369C42.1417 50.2169 42.239 49.9594 42.2529 49.7789L42.2558 49.7411L42.2616 49.7036C42.2744 49.6204 42.2891 49.4253 41.8521 49.0819L41.7843 49.0287L41.7266 48.9646C41.4235 48.6278 41.0449 48.3308 40.5789 48.0782C40.1411 47.8599 39.628 47.6371 39.0368 47.4106L21.0849 47.4106C20.3603 47.4106 19.8742 47.5688 19.5459 47.7986C19.2271 48.0218 18.9632 48.3778 18.7969 48.9588C18.7968 48.9593 18.7966 48.9598 18.7965 48.9604L18.0075 51.7656L15.5999 51.7656L15.5999 32.9306L17.7095 32.9306C16.8993 32.19 16.2368 31.3775 15.734 30.4903C15.0439 29.3171 14.7549 27.7485 14.7549 25.895C14.7549 23.8426 15.2218 22.088 16.2623 20.7353L16.2754 20.7183L16.2892 20.7018C16.984 19.8747 17.8196 19.2361 18.7834 18.7839C17.8359 17.801 16.9886 16.7911 16.2429 15.7536L16.2394 15.7488C15.1333 14.1902 14.6249 12.2142 14.6249 9.905C14.6249 7.18868 15.4032 4.83244 16.9986 2.89862L17.0066 2.88906ZM19.7978 18.3911C20.0669 18.6626 20.3443 18.9322 20.6299 19.2C20.2481 19.2898 19.8853 19.4044 19.5413 19.5437C18.5579 19.942 17.7291 20.5424 17.0549 21.345C16.1883 22.4717 15.7549 23.9883 15.7549 25.895C15.7549 27.6717 16.0366 29.0367 16.5999 29.99C17.1633 30.9867 17.9649 31.8967 19.0049 32.72L19.5249 32.135L19.5249 30.705C19.5249 28.885 20.4999 27.975 22.4499 27.975L36.8149 27.975C41.0616 27.975 44.1166 26.9133 45.9799 24.79C47.8866 22.71 48.8399 19.7417 48.8399 15.885C48.8399 13.5017 48.5366 11.2917 47.9299 9.255C47.3233 7.21834 46.4133 5.57167 45.1999 4.315C43.9866 3.10167 42.4916 2.49501 40.7149 2.49501C39.5449 2.49501 38.6133 2.86334 37.9199 3.6C37.2266 4.33667 36.8799 5.26834 36.8799 6.395C36.8799 7.60834 37.3133 8.62668 38.1799 9.45001C39.0466 10.2733 40.4116 10.7283 42.2749 10.815L42.9899 10.945C44.6366 11.1183 45.7849 11.5083 46.4349 12.115C47.1283 12.7217 47.4749 13.545 47.4749 14.585C47.4749 16.1017 46.8683 17.2067 45.6549 17.9C44.4849 18.6367 42.4266 19.005 39.4799 19.005L34.3449 19.005C34.1716 18.0517 33.9983 17.1417 33.8249 16.275C33.6949 15.4083 33.5649 14.6283 33.4349 13.935C32.5683 9.47168 31.2683 6.20001 29.5349 4.12001C27.8449 2.04001 25.9816 0.999998 23.9449 0.999998C21.2583 0.999998 19.1999 1.845 17.7699 3.535C16.3399 5.26834 15.6249 7.39166 15.6249 9.905C15.6249 12.0717 16.1016 13.8267 17.0549 15.17C17.8463 16.271 18.7606 17.3447 19.7978 18.3911ZM17.8349 48.6856C18.2683 47.169 19.3516 46.4106 21.0849 46.4106L39.2199 46.4106C39.9133 46.6706 40.5199 46.9306 41.0399 47.1906C41.6033 47.494 42.0799 47.8623 42.4699 48.2956C43.0766 48.7723 43.3366 49.2923 43.2499 49.8556C43.2066 50.419 42.8816 50.9173 42.2749 51.3506L42.1449 51.4806C40.3249 52.8673 39.4149 54.4706 39.4149 56.2906C39.4149 57.4606 39.8049 58.4573 40.5849 59.2806C41.4083 60.1473 42.5566 60.5806 44.0299 60.5806C45.4166 60.5806 46.5649 60.1473 47.4749 59.2806C48.3849 58.414 48.8399 57.1573 48.8399 55.5106C48.8399 54.3406 48.5149 53.149 47.8649 51.9356C47.2149 50.7656 46.3699 49.6823 45.3299 48.6856C44.7708 48.1508 44.1776 47.6705 43.5503 47.2448C43.2308 47.028 42.9025 46.8254 42.5654 46.6369C42.5553 46.6312 42.5451 46.6256 42.5349 46.6199C42.3639 46.5249 42.1905 46.4334 42.0149 46.3456L42.5349 46.3456L48.1249 45.7606L48.7749 45.1106L45.0049 33.9306L44.3549 33.9306L44.0949 34.9056C43.9216 35.7723 43.5966 36.3573 43.1199 36.6606C42.6866 37.0073 41.9933 37.1806 41.0399 37.1806L20.6949 37.1806C19.8716 37.1806 19.1999 37.0073 18.6799 36.6606C18.2168 36.3905 17.8568 35.8969 17.5999 35.18C17.5684 35.0919 17.5384 35.0004 17.5099 34.9056L17.2499 33.9306L16.5999 33.9306L16.5999 50.7656L17.2499 50.7656L17.8349 48.6856ZM46.5649 66.7683L24.3349 66.7683C21.3016 66.7683 19.0916 67.5266 17.7049 69.0433C16.3183 70.6033 15.6249 72.77 15.6249 75.5433C15.6249 77.71 16.0583 79.5517 16.9249 81.0683C17.7174 82.4551 18.7633 83.5701 20.0629 84.4134C20.1847 84.4924 20.3087 84.5691 20.4349 84.6433L21.0849 83.9933C21.0258 83.9407 20.9675 83.8882 20.9101 83.8356C20.8327 83.7647 20.7569 83.6938 20.6827 83.623C20.5715 83.5167 20.4638 83.4105 20.3597 83.3043C19.9053 82.8407 19.5187 82.377 19.1999 81.9133C18.7666 81.22 18.5499 80.4183 18.5499 79.5083C18.5499 78.4683 18.9399 77.6017 19.7199 76.9083C20.4999 76.2583 21.6483 75.9333 23.1649 75.9333L46.5649 75.9333L46.5649 83.2783L47.8649 83.2783L47.8649 75.9983L56.9649 76.1933L56.9649 75.5433L51.0499 70.2133C50.0966 69.26 49.3383 68.285 48.7749 67.2883C48.2651 66.4256 47.8618 65.4031 47.5649 64.221C47.5338 64.0969 47.5038 63.971 47.4749 63.8433L47.2149 62.2833L46.5649 62.2833L46.5649 66.7683ZM52.9073 95.6294L52.9249 95.6109C53.9613 94.52 55.3198 93.9996 56.8999 93.9996C58.6733 93.9996 60.184 94.6205 61.3421 95.8839C62.4901 97.1323 63.0999 98.5812 63.0999 100.2C63.0999 101.731 62.6055 103.058 61.572 104.092C60.5386 105.125 59.2113 105.62 57.6799 105.62C55.941 105.62 54.443 104.993 53.2529 103.752C52.0921 102.54 51.4799 101.106 51.4799 99.4846C51.4799 98.0358 51.9532 96.7425 52.8907 95.6489L52.9073 95.6294ZM60.6049 96.5597C59.6516 95.5197 58.4166 94.9996 56.8999 94.9996C55.5566 94.9996 54.4733 95.433 53.6499 96.2997C52.8699 97.2097 52.4799 98.2713 52.4799 99.4846C52.4799 100.828 52.9783 102.02 53.9749 103.06C54.9716 104.1 56.2066 104.62 57.6799 104.62C58.9799 104.62 60.0416 104.208 60.8649 103.385C61.6883 102.561 62.0999 101.5 62.0999 100.2C62.0999 98.8563 61.6016 97.643 60.6049 96.5597ZM25.9611 88.6891L25.9694 88.6907L40.6044 91.7479C41.3359 91.9085 41.8477 91.8365 42.2177 91.6515C42.5866 91.467 42.9459 91.1046 43.2471 90.4313L43.2559 90.4117L44.0907 88.742L46.1671 88.9307L50.0191 102.341L48.6757 103.834L24.573 98.6409C23.8067 98.4705 23.1578 98.3453 22.6229 98.263L22.6105 98.2611C22.1441 98.1834 21.6791 98.1447 21.2149 98.1447C20.9449 98.1447 20.8421 98.194 20.8185 98.208C20.8068 98.2316 20.7849 98.2979 20.7849 98.4447C20.7849 98.8795 20.9117 99.3472 21.2155 99.8601C21.6024 100.436 22.2449 101.204 23.1726 102.173L23.8486 102.88L21.9887 104.74L21.3051 104.278C19.6044 103.129 18.0761 101.666 16.7173 99.8994L16.715 99.8963C15.3134 98.0598 14.6249 95.8918 14.6249 93.4396C14.6249 91.9186 15.0208 90.579 15.8841 89.5C16.8074 88.3458 18.1436 87.8247 19.7199 87.8247C20.5693 87.8247 21.5566 87.9186 22.6729 88.0972C23.7691 88.2726 24.8651 88.4699 25.9611 88.6891ZM20.3699 100.395C19.9799 99.7446 19.7849 99.0947 19.7849 98.4447C19.7849 97.578 20.2616 97.1447 21.2149 97.1447C21.7349 97.1447 22.2549 97.188 22.7749 97.2747C23.3383 97.3613 24.0099 97.4913 24.7899 97.6647L48.3199 102.735L48.9049 102.085L45.3949 89.8647L44.6799 89.7997L44.1599 90.8397C43.4233 92.4863 42.1666 93.1147 40.3899 92.7247L25.7649 89.6696C24.6816 89.453 23.5983 89.258 22.5149 89.0847C21.4316 88.9113 20.4999 88.8247 19.7199 88.8247C18.3766 88.8247 17.3583 89.258 16.6649 90.1246C15.9716 90.9913 15.6249 92.0963 15.6249 93.4396C15.6249 95.693 16.2533 97.643 17.5099 99.2897C18.6137 100.725 19.8268 101.941 21.1492 102.938C21.3793 103.112 21.6127 103.279 21.8494 103.439C21.8546 103.443 21.8597 103.446 21.8649 103.45L22.4499 102.865C22.4125 102.826 22.3755 102.787 22.3389 102.748C22.1577 102.557 21.9864 102.373 21.8248 102.195C21.1871 101.493 20.7021 100.893 20.3699 100.395ZM20.8255 98.1972C20.8257 98.1975 20.8242 98.2003 20.8202 98.2046C20.8232 98.199 20.8252 98.1968 20.8255 98.1972ZM9.32654 100.864L9.32043 100.874C8.66637 101.909 7.58046 102.75 6.19215 103.444L6.15495 103.463L4.55213 104.104C4.50258 104.133 4.46253 104.159 4.43041 104.182C4.4472 104.193 4.4654 104.204 4.4851 104.216C4.80866 104.395 5.20169 104.565 5.67116 104.721L5.68398 104.725L5.69668 104.73C6.16925 104.902 6.77266 105.117 7.50776 105.377L7.53196 105.385L7.55569 105.395C8.95407 105.971 10.688 106.475 12.7699 106.9L12.7816 106.902L12.7933 106.905C14.8449 107.375 17.1385 107.804 19.6757 108.191L19.6861 108.193C23.9268 108.885 28.2761 109.556 32.734 110.205C36.8512 110.805 41.1715 111.423 45.6949 112.059L45.6949 106.698L48.2011 107.255L48.5335 110.496C48.6459 111.382 48.9242 111.907 49.2582 112.215C49.6637 112.589 50.3227 112.943 51.3196 113.222L51.333 113.226L51.3463 113.23C55.2719 114.448 58.3623 116.434 60.5472 119.223C62.7424 122.026 63.8149 125.459 63.8149 129.46C63.8149 131.765 63.3085 133.737 62.2067 135.295C61.1404 136.864 59.6821 137.74 57.8749 137.74C56.4764 137.74 55.2641 137.29 54.3517 136.32C53.4785 135.392 53.0399 134.257 53.0399 132.97C53.0399 130.379 54.8109 128.421 57.6934 127.003L57.789 126.956L58.8509 126.69C59.199 126.534 59.3784 126.4 59.4583 126.316C59.465 126.309 59.4704 126.303 59.4749 126.298L59.4749 126.275C59.4749 126.273 59.4749 126.273 59.4749 126.273C59.4745 126.272 59.4689 126.257 59.4463 126.228C59.3965 126.165 59.2784 126.055 59.0293 125.922L58.9735 125.892L58.9219 125.856C57.9957 125.2 56.6485 124.566 54.8354 123.976C53.2809 123.47 51.2944 123.003 48.8649 122.58L48.8649 130.596L45.4933 129.793L45.5577 122.064C41.2494 121.414 36.922 120.764 32.5756 120.114C27.9712 119.463 23.5391 118.746 19.2793 117.963L19.274 117.962C16.02 117.347 13.1778 116.529 10.7583 115.499C8.26656 114.501 6.13724 113.131 4.38783 111.382C2.95578 109.95 1.86211 108.324 1.11653 106.509C0.372955 104.741 -6.17183e-05 102.899 -6.16349e-05 100.99C-6.15484e-05 99.0128 0.448875 97.196 1.362 95.562C2.33781 93.8158 3.81888 92.8398 5.74494 92.8398C7.11045 92.8398 8.28515 93.2992 9.11687 94.3091C9.87791 95.2332 10.2549 96.3274 10.2549 97.5448C10.2549 98.7254 9.9443 99.8345 9.33243 100.854L9.32654 100.864ZM2.03994 106.125C2.73327 107.815 3.7516 109.331 5.09494 110.675C6.7416 112.321 8.7566 113.621 11.1399 114.575C13.4799 115.571 16.2533 116.373 19.4599 116.98C23.7066 117.76 28.1266 118.475 32.7199 119.125C37.3566 119.818 41.9716 120.511 46.5649 121.205L46.4999 129.005L47.8649 129.33L47.8649 121.4C48.2056 121.454 48.5389 121.509 48.8649 121.565C51.4006 122.001 53.4939 122.487 55.1449 123.025C57.0083 123.631 58.4599 124.303 59.4999 125.04C60.1499 125.386 60.4749 125.798 60.4749 126.275C60.5183 126.795 60.0849 127.25 59.1749 127.64L58.1349 127.9C55.4049 129.243 54.0399 130.933 54.0399 132.97C54.0399 134.01 54.3866 134.898 55.0799 135.635C55.7733 136.371 56.7049 136.74 57.8749 136.74C59.3049 136.74 60.4749 136.068 61.3849 134.725C62.3383 133.381 62.8149 131.626 62.8149 129.46C62.8149 125.646 61.7966 122.44 59.7599 119.84C57.7233 117.24 54.8199 115.355 51.0499 114.185C49.9666 113.881 49.1433 113.47 48.5799 112.95C48.1705 112.572 47.8755 112.056 47.6949 111.404C47.6271 111.158 47.5754 110.894 47.5399 110.61L47.2799 108.075L46.6949 107.945L46.6949 113.21C46.3605 113.163 46.0272 113.116 45.6949 113.069C41.1194 112.426 36.7511 111.801 32.5899 111.195C28.1266 110.545 23.7716 109.873 19.5249 109.18C16.9683 108.79 14.6499 108.356 12.5699 107.88C10.4466 107.446 8.64827 106.926 7.17494 106.32C6.43827 106.06 5.8316 105.843 5.35494 105.67C4.83494 105.496 4.37994 105.301 3.98994 105.085C3.46994 104.781 3.25327 104.456 3.33993 104.11C3.38327 103.763 3.64327 103.46 4.11993 103.2L5.74494 102.55C7.04494 101.9 7.95494 101.163 8.47494 100.34C8.99494 99.4731 9.25494 98.5415 9.25494 97.5448C9.25494 96.5481 8.9516 95.6815 8.34494 94.9448C7.73827 94.2081 6.8716 93.8398 5.74494 93.8398C4.22827 93.8398 3.05827 94.5765 2.23494 96.0498C1.41161 97.5231 0.999938 99.1698 0.999938 100.99C0.999938 102.766 1.34661 104.478 2.03994 106.125ZM59.4929 126.274C59.4929 126.274 59.4927 126.274 59.4924 126.275ZM20.9371 145.835C23.8389 146.988 26.7265 147.985 29.5999 148.826C33.1966 149.866 37.0749 150.884 41.2349 151.881C44.2683 152.617 46.3266 153.397 47.4099 154.221C48.4933 155.087 49.0349 156.236 49.0349 157.666C49.0349 158.619 48.7316 159.464 48.1249 160.201C47.5183 160.937 46.7166 161.306 45.7199 161.306C44.6366 161.306 43.6183 161.089 42.6649 160.656C41.7549 160.266 40.6066 159.702 39.2199 158.966C37.8766 158.272 36.4683 157.514 34.9949 156.691C33.5216 155.867 31.8749 154.892 30.0549 153.766C28.1483 152.552 26.0899 151.252 23.8799 149.866C21.7133 148.522 19.3516 146.941 16.7949 145.121C15.4516 144.124 14.0433 143.062 12.5699 141.936C11.0966 140.852 9.51493 139.487 7.82493 137.841C5.9616 136.107 4.4666 134.331 3.33993 132.511C2.21327 130.734 1.64994 128.914 1.64994 127.051C1.64994 125.491 2.0616 124.212 2.88493 123.216C3.70827 122.176 4.7916 121.656 6.13494 121.656C7.2616 121.656 8.21494 122.067 8.99494 122.891C9.7316 123.671 10.0999 124.646 10.0999 125.816C10.0999 127.202 9.57994 128.481 8.53993 129.651C7.7166 130.561 7.21827 131.449 7.04494 132.316C6.8716 133.226 7.1316 134.157 7.82493 135.111C8.25827 135.717 8.73493 136.281 9.25493 136.801C9.7316 137.364 10.2733 137.927 10.8799 138.491L11.2699 138.881C15.9066 138.231 20.3699 137.581 24.6599 136.931C28.9499 136.281 33.3916 135.609 37.9849 134.916C39.6316 134.699 40.8449 134.482 41.6249 134.266C42.4049 134.049 42.9033 133.811 43.1199 133.551C43.3799 133.334 43.5099 133.052 43.5099 132.706C43.5099 132.272 43.3149 131.774 42.9249 131.211C42.6548 130.851 42.2496 130.449 41.7093 130.006C41.4695 129.809 41.203 129.604 40.9099 129.391L41.7549 128.546C46.4783 131.579 48.8399 134.656 48.8399 137.776C48.8399 139.422 48.2983 140.592 47.2149 141.286C46.1316 142.022 44.3983 142.499 42.0149 142.716C37.9849 143.149 34.1283 143.561 30.4449 143.951C27.4714 144.269 24.3532 144.559 21.0905 144.82C20.3592 144.878 19.6207 144.935 18.8749 144.991C19.5631 145.281 20.2505 145.562 20.9371 145.835ZM23.2274 145.647C25.4537 146.48 27.6705 147.219 29.8777 147.865C33.4576 148.9 37.3209 149.915 41.4679 150.908L41.4709 150.909C44.5087 151.647 46.7508 152.464 48.015 153.425L48.0249 153.432L48.0346 153.44C49.3635 154.503 50.0349 155.943 50.0349 157.666C50.0349 158.851 49.6508 159.921 48.8969 160.836C48.0907 161.815 47.0001 162.306 45.7199 162.306C44.5026 162.306 43.346 162.062 42.261 161.571C41.3181 161.166 40.1478 160.591 38.7563 159.852C37.4036 159.154 35.9872 158.391 34.5071 157.564C33.0179 156.731 31.3581 155.749 29.5286 154.616L29.518 154.609C27.614 153.398 25.5582 152.099 23.3506 150.714M23.2274 145.647C25.7577 145.431 28.1987 145.197 30.5502 144.945C34.2315 144.555 38.0858 144.144 42.1132 143.711C44.5361 143.49 46.47 142.997 47.7657 142.121C49.2086 141.191 49.8399 139.65 49.8399 137.776C49.8399 134.114 47.0801 130.777 42.2953 127.704L41.6175 127.269L39.3753 129.511L40.3218 130.199C41.2374 130.865 41.8107 131.397 42.1139 131.796C42.4406 132.272 42.5099 132.564 42.5099 132.706C42.5099 132.73 42.5077 132.744 42.5063 132.751C42.505 132.757 42.504 132.759 42.5045 132.758C42.505 132.757 42.5048 132.757 42.5045 132.758C42.5042 132.758 42.5038 132.759 42.5031 132.76C42.5008 132.763 42.4942 132.771 42.4798 132.783L42.4099 132.841L42.3586 132.902C42.3581 132.902 42.3077 132.948 42.1522 133.022C41.9739 133.108 41.7144 133.203 41.3573 133.302C40.6481 133.499 39.4924 133.709 37.8545 133.924L37.8451 133.926L37.8357 133.927C33.2422 134.62 28.8003 135.292 24.5101 135.942C20.3764 136.568 16.0812 137.195 11.6246 137.821L11.5739 137.771L11.5604 137.758C10.9796 137.219 10.4662 136.684 10.0183 136.155L9.99145 136.123L9.96204 136.094C9.48152 135.613 9.04043 135.092 8.6387 134.529L8.63367 134.523C8.0573 133.73 7.91956 133.075 8.02645 132.507C8.15418 131.874 8.53609 131.146 9.2815 130.322L9.28734 130.315C10.4676 128.987 11.0999 127.479 11.0999 125.816C11.0999 124.416 10.6505 123.187 9.72195 122.204L9.72089 122.203C8.75347 121.182 7.53827 120.656 6.13494 120.656C4.49401 120.656 3.12243 121.309 2.10725 122.587C1.11154 123.797 0.649939 125.312 0.649939 127.051C0.649939 129.126 1.27965 131.127 2.49247 133.042C3.67188 134.946 5.224 136.786 7.13537 138.565C8.84354 140.229 10.4552 141.621 11.9699 142.736M21.0542 15.7985C20.7466 15.2141 20.5899 14.5768 20.5899 13.87C20.5899 12.9847 20.9031 12.2508 21.5697 11.6136C22.2288 11.0224 23.2889 10.645 24.9199 10.645C26.8046 10.645 28.1799 11.1694 29.1653 12.1194M20.8899 10.88C21.7999 10.0567 23.1433 9.645 24.9199 9.645C26.9999 9.645 28.6466 10.23 29.8599 11.4C31.1166 12.6133 32.0049 14.2167 32.5249 16.21C32.6116 16.7733 32.6983 17.2717 32.7849 17.705L33.0449 19.005L22.1249 19.005C21.2583 17.965 20.6083 17.055 20.1749 16.275C19.7849 15.5383 19.5899 14.7367 19.5899 13.87C19.5899 12.7 20.0233 11.7033 20.8899 10.88ZM22.5979 18.005L31.8251 18.005L31.8044 17.9011C31.7168 17.4633 31.6303 16.9672 31.5446 16.414C31.0612 14.5899 30.2579 13.1744 29.1653 12.1194M22.5979 18.005C21.9083 17.1508 21.3986 16.4166 21.0542 15.7985Z" fill="white"/>
</svg>
