<svg width="64" height="169" viewBox="0 0 64 169" fill="none" xmlns="http://www.w3.org/2000/svg">
<mask id="path-1-outside-1_584_42" maskUnits="userSpaceOnUse" x="-0.185066" y="-2.75382e-06" width="64" height="169" fill="black">
<rect fill="white" x="-0.185066" y="-2.75382e-06" width="64" height="169"/>
<path d="M15.6249 9.905C15.6249 7.39166 16.3399 5.26833 17.7699 3.535C19.1999 1.845 21.2583 0.999998 23.9449 0.999998C25.9816 0.999998 27.8449 2.04001 29.5349 4.12001C31.2683 6.20001 32.5683 9.47168 33.4349 13.935C33.5649 14.6283 33.6949 15.4083 33.8249 16.275C33.9983 17.1417 34.1716 18.0517 34.3449 19.005L39.4799 19.005C42.4266 19.005 44.4849 18.6367 45.6549 17.9C46.8683 17.2067 47.4749 16.1017 47.4749 14.585C47.4749 13.545 47.1283 12.7217 46.4349 12.115C45.7849 11.5083 44.6366 11.1183 42.9899 10.945L42.2749 10.815C40.4116 10.7283 39.0466 10.2733 38.1799 9.45001C37.3133 8.62668 36.8799 7.60834 36.8799 6.395C36.8799 5.26834 37.2266 4.33667 37.9199 3.60001C38.6133 2.86334 39.5449 2.49501 40.7149 2.49501C42.4916 2.49501 43.9866 3.10167 45.1999 4.315C46.4133 5.57167 47.3233 7.21834 47.9299 9.255C48.5366 11.2917 48.8399 13.5017 48.8399 15.885C48.8399 19.7417 47.8866 22.71 45.9799 24.79C44.1166 26.9133 41.0616 27.975 36.8149 27.975L22.4499 27.975C20.4999 27.975 19.5249 28.885 19.5249 30.705L19.5249 32.135L19.0049 32.72C17.9649 31.8967 17.1633 30.9867 16.5999 29.99C16.0366 29.0367 15.7549 27.6717 15.7549 25.895C15.7549 23.9883 16.1883 22.4717 17.0549 21.345C17.9649 20.2617 19.1566 19.5467 20.6299 19.2C19.2433 17.9 18.0516 16.5567 17.0549 15.17C16.1016 13.8267 15.6249 12.0717 15.6249 9.905ZM19.5899 13.87C19.5899 14.7367 19.7849 15.5383 20.1749 16.275C20.6083 17.055 21.2583 17.965 22.1249 19.005L33.0449 19.005C32.9583 18.5717 32.8716 18.1383 32.7849 17.705C32.6983 17.2717 32.6116 16.7733 32.5249 16.21C32.0049 14.2167 31.1166 12.6133 29.8599 11.4C28.6466 10.23 26.9999 9.645 24.9199 9.645C23.1433 9.645 21.7999 10.0567 20.8899 10.88C20.0233 11.7033 19.5899 12.7 19.5899 13.87Z"/>
<path d="M16.5999 35.9306L17.2499 35.9306L17.5099 36.9056C17.7699 37.7723 18.1599 38.3573 18.6799 38.6606C19.1999 39.0073 19.8716 39.1806 20.6949 39.1806L41.0399 39.1806C41.9933 39.1806 42.6866 39.0073 43.1199 38.6606C43.5966 38.3573 43.9216 37.7723 44.0949 36.9056L44.3549 35.9306L45.0049 35.9306L48.7749 47.1106L48.1249 47.7606L42.5349 48.3456L42.0149 48.3456C43.2283 48.9523 44.3333 49.7323 45.3299 50.6856C46.3699 51.6823 47.2149 52.7656 47.8649 53.9356C48.5149 55.149 48.8399 56.3406 48.8399 57.5106C48.8399 59.1573 48.3849 60.414 47.4749 61.2806C46.5649 62.1473 45.4166 62.5806 44.0299 62.5806C42.5566 62.5806 41.4083 62.1473 40.5849 61.2806C39.8049 60.4573 39.4149 59.4606 39.4149 58.2906C39.4149 56.4706 40.3249 54.8673 42.1449 53.4806L42.2749 53.3506C42.8816 52.9173 43.2066 52.419 43.2499 51.8556C43.3366 51.2923 43.0766 50.7723 42.4699 50.2956C42.0799 49.8623 41.6033 49.494 41.0399 49.1906C40.5199 48.9306 39.9133 48.6706 39.2199 48.4106L21.0849 48.4106C19.3516 48.4106 18.2683 49.169 17.8349 50.6856L17.2499 52.7656L16.5999 52.7656L16.5999 35.9306Z"/>
<path d="M15.6249 79.5433C15.6249 76.77 16.3183 74.6033 17.7049 73.0433C19.0916 71.5267 21.3016 70.7683 24.3349 70.7683L46.5649 70.7683L46.5649 66.2833L47.2149 66.2833L47.4749 67.8433C47.7783 69.1867 48.2116 70.335 48.7749 71.2883C49.3383 72.285 50.0966 73.26 51.0499 74.2133L56.9649 79.5433L56.9649 80.1933L47.8649 79.9983L47.8649 87.2783L46.5649 87.2783L46.5649 79.9333L23.1649 79.9333C21.6483 79.9333 20.4999 80.2583 19.7199 80.9083C18.9399 81.6017 18.5499 82.4683 18.5499 83.5083C18.5499 84.4183 18.7666 85.22 19.1999 85.9133C19.6766 86.6067 20.3049 87.3 21.0849 87.9933L20.4349 88.6433C18.9616 87.7767 17.7916 86.585 16.9249 85.0683C16.0583 83.5517 15.6249 81.71 15.6249 79.5433Z"/>
<path d="M52.4799 103.485C52.4799 102.271 52.8699 101.21 53.6499 100.3C54.4733 99.433 55.5566 98.9996 56.8999 98.9996C58.4166 98.9996 59.6516 99.5197 60.6049 100.56C61.6016 101.643 62.0999 102.856 62.0999 104.2C62.0999 105.5 61.6883 106.561 60.8649 107.385C60.0416 108.208 58.9799 108.62 57.6799 108.62C56.2066 108.62 54.9716 108.1 53.9749 107.06C52.9783 106.02 52.4799 104.828 52.4799 103.485ZM15.6249 97.4396C15.6249 96.0963 15.9716 94.9913 16.6649 94.1246C17.3583 93.258 18.3766 92.8247 19.7199 92.8247C20.4999 92.8247 21.4316 92.9113 22.5149 93.0847C23.5983 93.258 24.6816 93.453 25.7649 93.6696L40.3899 96.7247C42.1666 97.1147 43.4233 96.4863 44.1599 94.8397L44.6799 93.7997L45.3949 93.8647L48.9049 106.085L48.3199 106.735L24.7899 101.665C24.0099 101.491 23.3383 101.361 22.7749 101.275C22.2549 101.188 21.7349 101.145 21.2149 101.145C20.2616 101.145 19.7849 101.578 19.7849 102.445C19.7849 103.095 19.9799 103.745 20.3699 104.395C20.8033 105.045 21.4966 105.868 22.4499 106.865L21.8649 107.45C20.2616 106.366 18.8099 104.98 17.5099 103.29C16.2533 101.643 15.6249 99.693 15.6249 97.4396Z"/>
<path d="M0.999938 104.99C0.999938 103.17 1.41161 101.523 2.23494 100.05C3.05827 98.5765 4.22827 97.8398 5.74494 97.8398C6.8716 97.8398 7.73827 98.2081 8.34494 98.9448C8.9516 99.6815 9.25494 100.548 9.25494 101.545C9.25494 102.541 8.99494 103.473 8.47494 104.34C7.95494 105.163 7.04494 105.9 5.74494 106.55L4.11993 107.2C3.64327 107.46 3.38327 107.763 3.33993 108.11C3.25327 108.456 3.46994 108.781 3.98994 109.085C4.37994 109.301 4.83494 109.496 5.35494 109.67C5.8316 109.843 6.43827 110.06 7.17494 110.32C8.64827 110.926 10.4466 111.446 12.5699 111.88C14.6499 112.356 16.9683 112.79 19.5249 113.18C23.7716 113.873 28.1266 114.545 32.5899 115.195C37.0533 115.845 41.7549 116.516 46.6949 117.21L46.6949 111.945L47.2799 112.075L47.5399 114.61C47.6699 115.65 48.0166 116.43 48.5799 116.95C49.1433 117.47 49.9666 117.881 51.0499 118.185C54.8199 119.355 57.7233 121.24 59.7599 123.84C61.7966 126.44 62.8149 129.646 62.8149 133.46C62.8149 135.626 62.3383 137.381 61.3849 138.725C60.4749 140.068 59.3049 140.74 57.8749 140.74C56.7049 140.74 55.7733 140.371 55.0799 139.635C54.3866 138.898 54.0399 138.01 54.0399 136.97C54.0399 134.933 55.4049 133.243 58.1349 131.9L59.1749 131.64C60.0849 131.25 60.5183 130.795 60.4749 130.275C60.4749 129.798 60.1499 129.386 59.4999 129.04C58.4599 128.303 57.0083 127.631 55.1449 127.025C53.2816 126.418 50.8549 125.876 47.8649 125.4L47.8649 133.33L46.4999 133.005L46.5649 125.205C41.9716 124.511 37.3566 123.818 32.7199 123.125C28.1266 122.475 23.7066 121.76 19.4599 120.98C16.2533 120.373 13.4799 119.571 11.1399 118.575C8.7566 117.621 6.7416 116.321 5.09494 114.675C3.7516 113.331 2.73327 111.815 2.03994 110.125C1.34661 108.478 0.999938 106.766 0.999938 104.99Z"/>
<path d="M1.64994 133.051C1.64994 131.491 2.0616 130.212 2.88493 129.216C3.70827 128.176 4.7916 127.656 6.13494 127.656C7.2616 127.656 8.21494 128.067 8.99494 128.891C9.7316 129.671 10.0999 130.646 10.0999 131.816C10.0999 133.202 9.57993 134.481 8.53993 135.651C7.7166 136.561 7.21827 137.449 7.04493 138.316C6.8716 139.226 7.1316 140.157 7.82493 141.111C8.25827 141.717 8.73493 142.281 9.25493 142.801C9.7316 143.364 10.2733 143.927 10.8799 144.491C11.0099 144.621 11.1399 144.751 11.2699 144.881C15.9066 144.231 20.3699 143.581 24.6599 142.931C28.9499 142.281 33.3916 141.609 37.9849 140.916C39.6316 140.699 40.8449 140.482 41.6249 140.266C42.4049 140.049 42.9033 139.811 43.1199 139.551C43.3799 139.334 43.5099 139.052 43.5099 138.706C43.5099 138.272 43.3149 137.774 42.9249 137.211C42.5349 136.691 41.8633 136.084 40.9099 135.391L41.7549 134.546C46.4783 137.579 48.8399 140.656 48.8399 143.776C48.8399 145.422 48.2983 146.592 47.2149 147.286C46.1316 148.022 44.3983 148.499 42.0149 148.716C37.9849 149.149 34.1283 149.561 30.4449 149.951C26.8049 150.341 22.9483 150.687 18.8749 150.991C22.4716 152.507 26.0466 153.786 29.5999 154.826C33.1966 155.866 37.0749 156.884 41.2349 157.881C44.2683 158.617 46.3266 159.397 47.4099 160.221C48.4933 161.087 49.0349 162.236 49.0349 163.666C49.0349 164.619 48.7316 165.464 48.1249 166.201C47.5183 166.937 46.7166 167.306 45.7199 167.306C44.6366 167.306 43.6183 167.089 42.6649 166.656C41.7549 166.266 40.6066 165.702 39.2199 164.966C37.8766 164.272 36.4683 163.514 34.9949 162.691C33.5216 161.867 31.8749 160.892 30.0549 159.766C28.1483 158.552 26.0899 157.252 23.8799 155.866C21.7133 154.522 19.3516 152.941 16.7949 151.121C15.4516 150.124 14.0433 149.062 12.5699 147.936C11.0966 146.852 9.51493 145.487 7.82493 143.841C5.9616 142.107 4.4666 140.331 3.33993 138.511C2.21327 136.734 1.64994 134.914 1.64994 133.051Z"/>
</mask>
<path d="M15.6249 9.905C15.6249 7.39166 16.3399 5.26833 17.7699 3.535C19.1999 1.845 21.2583 0.999998 23.9449 0.999998C25.9816 0.999998 27.8449 2.04001 29.5349 4.12001C31.2683 6.20001 32.5683 9.47168 33.4349 13.935C33.5649 14.6283 33.6949 15.4083 33.8249 16.275C33.9983 17.1417 34.1716 18.0517 34.3449 19.005L39.4799 19.005C42.4266 19.005 44.4849 18.6367 45.6549 17.9C46.8683 17.2067 47.4749 16.1017 47.4749 14.585C47.4749 13.545 47.1283 12.7217 46.4349 12.115C45.7849 11.5083 44.6366 11.1183 42.9899 10.945L42.2749 10.815C40.4116 10.7283 39.0466 10.2733 38.1799 9.45001C37.3133 8.62668 36.8799 7.60834 36.8799 6.395C36.8799 5.26834 37.2266 4.33667 37.9199 3.60001C38.6133 2.86334 39.5449 2.49501 40.7149 2.49501C42.4916 2.49501 43.9866 3.10167 45.1999 4.315C46.4133 5.57167 47.3233 7.21834 47.9299 9.255C48.5366 11.2917 48.8399 13.5017 48.8399 15.885C48.8399 19.7417 47.8866 22.71 45.9799 24.79C44.1166 26.9133 41.0616 27.975 36.8149 27.975L22.4499 27.975C20.4999 27.975 19.5249 28.885 19.5249 30.705L19.5249 32.135L19.0049 32.72C17.9649 31.8967 17.1633 30.9867 16.5999 29.99C16.0366 29.0367 15.7549 27.6717 15.7549 25.895C15.7549 23.9883 16.1883 22.4717 17.0549 21.345C17.9649 20.2617 19.1566 19.5467 20.6299 19.2C19.2433 17.9 18.0516 16.5567 17.0549 15.17C16.1016 13.8267 15.6249 12.0717 15.6249 9.905ZM19.5899 13.87C19.5899 14.7367 19.7849 15.5383 20.1749 16.275C20.6083 17.055 21.2583 17.965 22.1249 19.005L33.0449 19.005C32.9583 18.5717 32.8716 18.1383 32.7849 17.705C32.6983 17.2717 32.6116 16.7733 32.5249 16.21C32.0049 14.2167 31.1166 12.6133 29.8599 11.4C28.6466 10.23 26.9999 9.645 24.9199 9.645C23.1433 9.645 21.7999 10.0567 20.8899 10.88C20.0233 11.7033 19.5899 12.7 19.5899 13.87Z" stroke="white" stroke-width="2" mask="url(#path-1-outside-1_584_42)"/>
<path d="M16.5999 35.9306L17.2499 35.9306L17.5099 36.9056C17.7699 37.7723 18.1599 38.3573 18.6799 38.6606C19.1999 39.0073 19.8716 39.1806 20.6949 39.1806L41.0399 39.1806C41.9933 39.1806 42.6866 39.0073 43.1199 38.6606C43.5966 38.3573 43.9216 37.7723 44.0949 36.9056L44.3549 35.9306L45.0049 35.9306L48.7749 47.1106L48.1249 47.7606L42.5349 48.3456L42.0149 48.3456C43.2283 48.9523 44.3333 49.7323 45.3299 50.6856C46.3699 51.6823 47.2149 52.7656 47.8649 53.9356C48.5149 55.149 48.8399 56.3406 48.8399 57.5106C48.8399 59.1573 48.3849 60.414 47.4749 61.2806C46.5649 62.1473 45.4166 62.5806 44.0299 62.5806C42.5566 62.5806 41.4083 62.1473 40.5849 61.2806C39.8049 60.4573 39.4149 59.4606 39.4149 58.2906C39.4149 56.4706 40.3249 54.8673 42.1449 53.4806L42.2749 53.3506C42.8816 52.9173 43.2066 52.419 43.2499 51.8556C43.3366 51.2923 43.0766 50.7723 42.4699 50.2956C42.0799 49.8623 41.6033 49.494 41.0399 49.1906C40.5199 48.9306 39.9133 48.6706 39.2199 48.4106L21.0849 48.4106C19.3516 48.4106 18.2683 49.169 17.8349 50.6856L17.2499 52.7656L16.5999 52.7656L16.5999 35.9306Z" stroke="white" stroke-width="2" mask="url(#path-1-outside-1_584_42)"/>
<path d="M15.6249 79.5433C15.6249 76.77 16.3183 74.6033 17.7049 73.0433C19.0916 71.5267 21.3016 70.7683 24.3349 70.7683L46.5649 70.7683L46.5649 66.2833L47.2149 66.2833L47.4749 67.8433C47.7783 69.1867 48.2116 70.335 48.7749 71.2883C49.3383 72.285 50.0966 73.26 51.0499 74.2133L56.9649 79.5433L56.9649 80.1933L47.8649 79.9983L47.8649 87.2783L46.5649 87.2783L46.5649 79.9333L23.1649 79.9333C21.6483 79.9333 20.4999 80.2583 19.7199 80.9083C18.9399 81.6017 18.5499 82.4683 18.5499 83.5083C18.5499 84.4183 18.7666 85.22 19.1999 85.9133C19.6766 86.6067 20.3049 87.3 21.0849 87.9933L20.4349 88.6433C18.9616 87.7767 17.7916 86.585 16.9249 85.0683C16.0583 83.5517 15.6249 81.71 15.6249 79.5433Z" stroke="white" stroke-width="2" mask="url(#path-1-outside-1_584_42)"/>
<path d="M52.4799 103.485C52.4799 102.271 52.8699 101.21 53.6499 100.3C54.4733 99.433 55.5566 98.9996 56.8999 98.9996C58.4166 98.9996 59.6516 99.5197 60.6049 100.56C61.6016 101.643 62.0999 102.856 62.0999 104.2C62.0999 105.5 61.6883 106.561 60.8649 107.385C60.0416 108.208 58.9799 108.62 57.6799 108.62C56.2066 108.62 54.9716 108.1 53.9749 107.06C52.9783 106.02 52.4799 104.828 52.4799 103.485ZM15.6249 97.4396C15.6249 96.0963 15.9716 94.9913 16.6649 94.1246C17.3583 93.258 18.3766 92.8247 19.7199 92.8247C20.4999 92.8247 21.4316 92.9113 22.5149 93.0847C23.5983 93.258 24.6816 93.453 25.7649 93.6696L40.3899 96.7247C42.1666 97.1147 43.4233 96.4863 44.1599 94.8397L44.6799 93.7997L45.3949 93.8647L48.9049 106.085L48.3199 106.735L24.7899 101.665C24.0099 101.491 23.3383 101.361 22.7749 101.275C22.2549 101.188 21.7349 101.145 21.2149 101.145C20.2616 101.145 19.7849 101.578 19.7849 102.445C19.7849 103.095 19.9799 103.745 20.3699 104.395C20.8033 105.045 21.4966 105.868 22.4499 106.865L21.8649 107.45C20.2616 106.366 18.8099 104.98 17.5099 103.29C16.2533 101.643 15.6249 99.693 15.6249 97.4396Z" stroke="white" stroke-width="2" mask="url(#path-1-outside-1_584_42)"/>
<path d="M0.999938 104.99C0.999938 103.17 1.41161 101.523 2.23494 100.05C3.05827 98.5765 4.22827 97.8398 5.74494 97.8398C6.8716 97.8398 7.73827 98.2081 8.34494 98.9448C8.9516 99.6815 9.25494 100.548 9.25494 101.545C9.25494 102.541 8.99494 103.473 8.47494 104.34C7.95494 105.163 7.04494 105.9 5.74494 106.55L4.11993 107.2C3.64327 107.46 3.38327 107.763 3.33993 108.11C3.25327 108.456 3.46994 108.781 3.98994 109.085C4.37994 109.301 4.83494 109.496 5.35494 109.67C5.8316 109.843 6.43827 110.06 7.17494 110.32C8.64827 110.926 10.4466 111.446 12.5699 111.88C14.6499 112.356 16.9683 112.79 19.5249 113.18C23.7716 113.873 28.1266 114.545 32.5899 115.195C37.0533 115.845 41.7549 116.516 46.6949 117.21L46.6949 111.945L47.2799 112.075L47.5399 114.61C47.6699 115.65 48.0166 116.43 48.5799 116.95C49.1433 117.47 49.9666 117.881 51.0499 118.185C54.8199 119.355 57.7233 121.24 59.7599 123.84C61.7966 126.44 62.8149 129.646 62.8149 133.46C62.8149 135.626 62.3383 137.381 61.3849 138.725C60.4749 140.068 59.3049 140.74 57.8749 140.74C56.7049 140.74 55.7733 140.371 55.0799 139.635C54.3866 138.898 54.0399 138.01 54.0399 136.97C54.0399 134.933 55.4049 133.243 58.1349 131.9L59.1749 131.64C60.0849 131.25 60.5183 130.795 60.4749 130.275C60.4749 129.798 60.1499 129.386 59.4999 129.04C58.4599 128.303 57.0083 127.631 55.1449 127.025C53.2816 126.418 50.8549 125.876 47.8649 125.4L47.8649 133.33L46.4999 133.005L46.5649 125.205C41.9716 124.511 37.3566 123.818 32.7199 123.125C28.1266 122.475 23.7066 121.76 19.4599 120.98C16.2533 120.373 13.4799 119.571 11.1399 118.575C8.7566 117.621 6.7416 116.321 5.09494 114.675C3.7516 113.331 2.73327 111.815 2.03994 110.125C1.34661 108.478 0.999938 106.766 0.999938 104.99Z" stroke="white" stroke-width="2" mask="url(#path-1-outside-1_584_42)"/>
<path d="M1.64994 133.051C1.64994 131.491 2.0616 130.212 2.88493 129.216C3.70827 128.176 4.7916 127.656 6.13494 127.656C7.2616 127.656 8.21494 128.067 8.99494 128.891C9.7316 129.671 10.0999 130.646 10.0999 131.816C10.0999 133.202 9.57993 134.481 8.53993 135.651C7.7166 136.561 7.21827 137.449 7.04493 138.316C6.8716 139.226 7.1316 140.157 7.82493 141.111C8.25827 141.717 8.73493 142.281 9.25493 142.801C9.7316 143.364 10.2733 143.927 10.8799 144.491C11.0099 144.621 11.1399 144.751 11.2699 144.881C15.9066 144.231 20.3699 143.581 24.6599 142.931C28.9499 142.281 33.3916 141.609 37.9849 140.916C39.6316 140.699 40.8449 140.482 41.6249 140.266C42.4049 140.049 42.9033 139.811 43.1199 139.551C43.3799 139.334 43.5099 139.052 43.5099 138.706C43.5099 138.272 43.3149 137.774 42.9249 137.211C42.5349 136.691 41.8633 136.084 40.9099 135.391L41.7549 134.546C46.4783 137.579 48.8399 140.656 48.8399 143.776C48.8399 145.422 48.2983 146.592 47.2149 147.286C46.1316 148.022 44.3983 148.499 42.0149 148.716C37.9849 149.149 34.1283 149.561 30.4449 149.951C26.8049 150.341 22.9483 150.687 18.8749 150.991C22.4716 152.507 26.0466 153.786 29.5999 154.826C33.1966 155.866 37.0749 156.884 41.2349 157.881C44.2683 158.617 46.3266 159.397 47.4099 160.221C48.4933 161.087 49.0349 162.236 49.0349 163.666C49.0349 164.619 48.7316 165.464 48.1249 166.201C47.5183 166.937 46.7166 167.306 45.7199 167.306C44.6366 167.306 43.6183 167.089 42.6649 166.656C41.7549 166.266 40.6066 165.702 39.2199 164.966C37.8766 164.272 36.4683 163.514 34.9949 162.691C33.5216 161.867 31.8749 160.892 30.0549 159.766C28.1483 158.552 26.0899 157.252 23.8799 155.866C21.7133 154.522 19.3516 152.941 16.7949 151.121C15.4516 150.124 14.0433 149.062 12.5699 147.936C11.0966 146.852 9.51493 145.487 7.82493 143.841C5.9616 142.107 4.4666 140.331 3.33993 138.511C2.21327 136.734 1.64994 134.914 1.64994 133.051Z" stroke="white" stroke-width="2" mask="url(#path-1-outside-1_584_42)"/>
</svg>
