<svg width="48" height="48" viewBox="0 0 48 48" fill="none" xmlns="http://www.w3.org/2000/svg">
<path d="M48 24C48 37.2548 37.2548 48 24 48C10.7452 48 0 37.2548 0 24C0 10.7452 10.7452 0 24 0C37.2548 0 48 10.7452 48 24Z" fill="black"/>
<path fill-rule="evenodd" clip-rule="evenodd" d="M24 47C36.7025 47 47 36.7025 47 24C47 11.2975 36.7025 1 24 1C11.2975 1 1 11.2975 1 24C1 36.7025 11.2975 47 24 47ZM24 48C37.2548 48 48 37.2548 48 24C48 10.7452 37.2548 0 24 0C10.7452 0 0 10.7452 0 24C0 37.2548 10.7452 48 24 48Z" fill="white"/>
<path d="M12 19C12 19.5523 11.5523 20 11 20C10.4477 20 10 19.5523 10 19C10 18.4477 10.4477 18 11 18C11.5523 18 12 18.4477 12 19Z" fill="white"/>
<path fill-rule="evenodd" clip-rule="evenodd" d="M16.5 19C16.5 18.7239 16.7239 18.5 17 18.5H35C35.2761 18.5 35.5 18.7239 35.5 19C35.5 19.2761 35.2761 19.5 35 19.5H17C16.7239 19.5 16.5 19.2761 16.5 19Z" fill="white"/>
<path d="M12 24C12 24.5523 11.5523 25 11 25C10.4477 25 10 24.5523 10 24C10 23.4477 10.4477 23 11 23C11.5523 23 12 23.4477 12 24Z" fill="white"/>
<path fill-rule="evenodd" clip-rule="evenodd" d="M16.5 24C16.5 23.7239 16.7239 23.5 17 23.5H35C35.2761 23.5 35.5 23.7239 35.5 24C35.5 24.2761 35.2761 24.5 35 24.5H17C16.7239 24.5 16.5 24.2761 16.5 24Z" fill="white"/>
<path d="M12 29C12 29.5523 11.5523 30 11 30C10.4477 30 10 29.5523 10 29C10 28.4477 10.4477 28 11 28C11.5523 28 12 28.4477 12 29Z" fill="white"/>
<path fill-rule="evenodd" clip-rule="evenodd" d="M16.5 29C16.5 28.7239 16.7239 28.5 17 28.5H35C35.2761 28.5 35.5 28.7239 35.5 29C35.5 29.2761 35.2761 29.5 35 29.5H17C16.7239 29.5 16.5 29.2761 16.5 29Z" fill="white"/>
</svg>
