<svg width="48" height="48" viewBox="0 0 48 48" fill="none" xmlns="http://www.w3.org/2000/svg">
<path d="M48 24C48 37.2548 37.2548 48 24 48C10.7452 48 0 37.2548 0 24C0 10.7452 10.7452 0 24 0C37.2548 0 48 10.7452 48 24Z" fill="black"/>
<path fill-rule="evenodd" clip-rule="evenodd" d="M24 47C36.7025 47 47 36.7025 47 24C47 11.2975 36.7025 1 24 1C11.2975 1 1 11.2975 1 24C1 36.7025 11.2975 47 24 47ZM24 48C37.2548 48 48 37.2548 48 24C48 10.7452 37.2548 0 24 0C10.7452 0 0 10.7452 0 24C0 37.2548 10.7452 48 24 48Z" fill="white"/>
<path fill-rule="evenodd" clip-rule="evenodd" d="M13.5308 25.1289C12.8478 24.5312 12.8478 23.4687 13.5308 22.8711L20.6707 16.6237C20.8785 16.4419 21.1944 16.4629 21.3763 16.6707C21.5581 16.8786 21.537 17.1944 21.3292 17.3763L14.1893 23.6237C13.9616 23.8229 13.9616 24.1771 14.1893 24.3763L21.3292 30.6237C21.537 30.8055 21.5581 31.1214 21.3763 31.3292C21.1944 31.5371 20.8785 31.5581 20.6707 31.3763L13.5308 25.1289Z" fill="white"/>
<path fill-rule="evenodd" clip-rule="evenodd" d="M35.5 24C35.5 24.2761 35.2761 24.5 35 24.5L14 24.5C13.7239 24.5 13.5 24.2761 13.5 24C13.5 23.7239 13.7239 23.5 14 23.5L35 23.5C35.2761 23.5 35.5 23.7239 35.5 24Z" fill="white"/>
</svg>
