<svg width="48" height="48" viewBox="0 0 48 48" fill="none" xmlns="http://www.w3.org/2000/svg">
<path d="M48 24C48 37.2548 37.2548 48 24 48C10.7452 48 0 37.2548 0 24C0 10.7452 10.7452 0 24 0C37.2548 0 48 10.7452 48 24Z" fill="black"/>
<path fill-rule="evenodd" clip-rule="evenodd" d="M35.8536 17.1464C36.0488 17.3417 36.0488 17.6583 35.8536 17.8536L20.8536 32.8536C20.6583 33.0488 20.3417 33.0488 20.1464 32.8536C19.9512 32.6583 19.9512 32.3417 20.1464 32.1464L35.1464 17.1464C35.3417 16.9512 35.6583 16.9512 35.8536 17.1464Z" fill="white"/>
<path fill-rule="evenodd" clip-rule="evenodd" d="M13.6464 25.6464C13.8417 25.4512 14.1583 25.4512 14.3536 25.6464L20.8536 32.1464L20.1464 32.8536L13.6464 26.3536C13.4512 26.1583 13.4512 25.8417 13.6464 25.6464Z" fill="white"/>
</svg>
