<svg width="188" height="241" viewBox="0 0 188 241" fill="none" xmlns="http://www.w3.org/2000/svg">
<path d="M65.2436 183.72C63.8569 183.72 62.4836 183.547 61.1236 183.2C59.7903 182.853 58.6569 182.36 57.7236 181.72L58.6836 175.84H59.0836L60.2436 179.12C60.6969 180.427 61.2836 181.387 62.0036 182C62.7503 182.613 63.8303 182.92 65.2436 182.92C66.8169 182.92 68.0569 182.453 68.9636 181.52C69.8969 180.587 70.3636 179.467 70.3636 178.16C70.3636 177.467 70.2569 176.813 70.0436 176.2C69.8303 175.587 69.4169 174.947 68.8036 174.28C68.2169 173.613 67.3369 172.867 66.1636 172.04C64.7236 171 63.6169 170.027 62.8436 169.12C62.0703 168.213 61.5369 167.32 61.2436 166.44C60.9503 165.56 60.8036 164.667 60.8036 163.76C60.8036 162.187 61.2036 160.813 62.0036 159.64C62.8036 158.44 63.9103 157.52 65.3236 156.88C66.7636 156.213 68.3903 155.88 70.2036 155.88C71.5369 155.88 72.8569 156.067 74.1636 156.44C75.4969 156.787 76.6036 157.267 77.4836 157.88L76.3636 163.48H75.9636L75.1636 160.84C74.7369 159.427 74.1769 158.387 73.4836 157.72C72.7903 157.027 71.7369 156.68 70.3236 156.68C68.9369 156.68 67.7636 157.08 66.8036 157.88C65.8703 158.68 65.4036 159.747 65.4036 161.08C65.4036 162.227 65.7103 163.267 66.3236 164.2C66.9369 165.133 68.0436 166.173 69.6436 167.32C71.7503 168.867 73.2036 170.267 74.0036 171.52C74.8303 172.747 75.2436 174.08 75.2436 175.52C75.2436 177.227 74.8169 178.693 73.9636 179.92C73.1103 181.12 71.9236 182.053 70.4036 182.72C68.9103 183.387 67.1903 183.72 65.2436 183.72ZM85.8111 183.6C84.4244 183.6 83.1578 183.333 82.0111 182.8C80.8644 182.24 79.9578 181.413 79.2911 180.32C78.6244 179.2 78.2911 177.787 78.2911 176.08C78.2911 174.373 78.5711 172.747 79.1311 171.2C79.7178 169.653 80.5311 168.28 81.5711 167.08C82.6111 165.853 83.8244 164.893 85.2111 164.2C86.5978 163.507 88.1044 163.16 89.7311 163.16C91.1444 163.16 92.3978 163.44 93.4911 164C94.6111 164.533 95.4911 165.347 96.1311 166.44C96.7978 167.533 97.1311 168.933 97.1311 170.64C97.1311 172.32 96.8378 173.947 96.2511 175.52C95.6911 177.067 94.8911 178.453 93.8511 179.68C92.8378 180.88 91.6378 181.84 90.2511 182.56C88.8911 183.253 87.4111 183.6 85.8111 183.6ZM86.2911 182.8C87.1178 182.8 87.8644 182.427 88.5311 181.68C89.2244 180.907 89.8244 179.893 90.3311 178.64C90.8378 177.36 91.2244 175.96 91.4911 174.44C91.7578 172.893 91.8911 171.36 91.8911 169.84C91.8911 167.627 91.6644 166.093 91.2111 165.24C90.7578 164.387 90.1711 163.96 89.4511 163.96C88.5978 163.96 87.8111 164.333 87.0911 165.08C86.3711 165.827 85.7444 166.827 85.2111 168.08C84.6778 169.333 84.2644 170.72 83.9711 172.24C83.6778 173.76 83.5311 175.28 83.5311 176.8C83.5311 179.067 83.7978 180.64 84.3311 181.52C84.8644 182.373 85.5178 182.8 86.2911 182.8ZM99.1086 183.28L98.7486 183L101.829 168.28C102.069 167.24 101.695 166.493 100.709 166.04L100.029 165.72L100.069 165.32L107.509 163.12L107.869 163.44L106.949 168.28C108.335 166.707 109.749 165.467 111.189 164.56C112.629 163.627 113.989 163.16 115.269 163.16C116.122 163.16 116.829 163.427 117.389 163.96C117.949 164.467 118.229 165.267 118.229 166.36C118.229 166.92 118.175 167.507 118.069 168.12C117.962 168.707 117.829 169.32 117.669 169.96L115.549 178.48C115.442 178.907 115.362 179.267 115.309 179.56C115.255 179.827 115.229 180.067 115.229 180.28C115.229 180.84 115.455 181.12 115.909 181.12C116.655 181.12 117.602 180.52 118.749 179.32L119.149 179.72C118.482 180.707 117.602 181.6 116.509 182.4C115.415 183.2 114.202 183.6 112.869 183.6C111.989 183.6 111.309 183.4 110.829 183C110.349 182.573 110.109 181.987 110.109 181.24C110.109 180.68 110.175 180.107 110.309 179.52C110.442 178.907 110.589 178.28 110.749 177.64L112.309 171.4C112.522 170.547 112.695 169.787 112.829 169.12C112.962 168.453 113.029 167.84 113.029 167.28C113.029 166.8 112.922 166.467 112.709 166.28C112.495 166.067 112.202 165.96 111.829 165.96C111.189 165.96 110.429 166.24 109.549 166.8C108.695 167.36 107.749 168.24 106.709 169.44L105.589 174.48C105.295 175.893 105.015 177.307 104.749 178.72C104.482 180.133 104.215 181.56 103.949 183L99.1086 183.28ZM125.538 192.44C123.298 192.44 121.525 192.093 120.218 191.4C118.938 190.707 118.298 189.693 118.298 188.36C118.298 187.533 118.591 186.773 119.178 186.08C119.765 185.413 120.485 184.827 121.338 184.32C122.218 183.813 123.111 183.413 124.018 183.12C123.111 182.88 122.405 182.56 121.898 182.16C121.391 181.733 121.138 181.2 121.138 180.56C121.138 179.92 121.511 179.173 122.258 178.32C123.031 177.44 123.938 176.6 124.978 175.8C124.205 175.267 123.618 174.6 123.218 173.8C122.818 173 122.618 172.16 122.618 171.28C122.618 169.813 122.991 168.467 123.738 167.24C124.485 166.013 125.485 165.027 126.738 164.28C128.018 163.533 129.418 163.16 130.938 163.16C131.951 163.16 132.885 163.307 133.738 163.6C134.618 163.867 135.351 164.28 135.938 164.84C136.791 164.707 137.605 164.507 138.378 164.24C139.178 163.947 139.938 163.587 140.658 163.16L140.938 163.44L140.538 165.52H136.538C137.178 166.373 137.498 167.4 137.498 168.6C137.498 170.227 137.138 171.667 136.418 172.92C135.725 174.173 134.751 175.16 133.498 175.88C132.245 176.573 130.778 176.92 129.098 176.92C127.818 176.92 126.685 176.68 125.698 176.2L125.098 177.2C124.885 177.52 124.818 177.84 124.898 178.16C124.978 178.48 125.258 178.68 125.738 178.76L132.298 180.08C134.511 180.533 136.058 181.12 136.938 181.84C137.845 182.56 138.298 183.547 138.298 184.8C138.298 186.293 137.738 187.613 136.618 188.76C135.525 189.907 134.018 190.8 132.098 191.44C130.178 192.107 127.991 192.44 125.538 192.44ZM129.818 176.12C130.698 176.12 131.445 175.613 132.058 174.6C132.698 173.587 133.018 171.827 133.018 169.32C133.018 167.613 132.791 166.293 132.338 165.36C131.885 164.427 131.311 163.96 130.618 163.96C129.551 163.987 128.738 164.613 128.178 165.84C127.618 167.04 127.338 168.653 127.338 170.68C127.338 172.147 127.525 173.427 127.898 174.52C128.298 175.613 128.938 176.147 129.818 176.12ZM122.338 186.96C122.338 188.293 122.818 189.333 123.778 190.08C124.738 190.853 126.031 191.24 127.658 191.24C129.711 191.24 131.325 190.893 132.498 190.2C133.671 189.507 134.258 188.507 134.258 187.2C134.258 186.427 133.911 185.813 133.218 185.36C132.551 184.907 131.365 184.52 129.658 184.2L124.978 183.32C124.845 183.293 124.725 183.267 124.618 183.24C123.925 183.667 123.365 184.187 122.938 184.8C122.538 185.44 122.338 186.16 122.338 186.96ZM42.9688 229.12L36.8088 212.2C36.5154 211.347 35.9288 210.747 35.0488 210.4L34.3688 210.16V209.76H44.1688V210.16L43.5688 210.32C42.5288 210.64 42.1821 211.28 42.5288 212.24L46.2488 223.56L49.5688 214.76L48.8088 212.48C48.6221 211.893 48.4221 211.453 48.2088 211.16C48.0221 210.84 47.7688 210.613 47.4488 210.48L46.7688 210.16V209.76H55.0488V210.16L54.4888 210.4C54.0888 210.56 53.8488 210.773 53.7688 211.04C53.6888 211.307 53.7421 211.707 53.9288 212.24L57.6088 223.36L61.4088 212.32C61.7821 211.307 61.5821 210.667 60.8088 210.4L59.9288 210.16V209.76H64.7288V210.16L63.7688 210.44C63.3154 210.573 62.9821 210.787 62.7688 211.08C62.5821 211.347 62.4088 211.72 62.2488 212.2L56.4888 229.12H54.4488L50.0088 216.04L45.2888 229.12H42.9688ZM70.9213 229.6C69.3746 229.6 68.0679 229.16 67.0013 228.28C65.9613 227.4 65.4413 226.133 65.4413 224.48C65.4413 223.227 66.0813 222.08 67.3613 221.04C68.6413 219.973 70.6546 219.173 73.4013 218.64C73.8279 218.56 74.3079 218.48 74.8412 218.4C75.3746 218.293 75.9346 218.187 76.5213 218.08V214.92C76.5213 213.107 76.2946 211.84 75.8413 211.12C75.4146 210.373 74.7346 210 73.8013 210C73.1613 210 72.6546 210.213 72.2813 210.64C71.9079 211.04 71.6679 211.747 71.5613 212.76L71.4813 213.2C71.4279 214.347 71.1479 215.187 70.6413 215.72C70.1346 216.253 69.5079 216.52 68.7613 216.52C68.0679 216.52 67.4946 216.307 67.0413 215.88C66.5879 215.453 66.3613 214.88 66.3613 214.16C66.3613 213.067 66.7346 212.147 67.4813 211.4C68.2546 210.653 69.2679 210.093 70.5213 209.72C71.7746 209.347 73.1346 209.16 74.6013 209.16C76.9746 209.16 78.8013 209.747 80.0813 210.92C81.3879 212.067 82.0413 213.947 82.0413 216.56V225.4C82.0413 226.6 82.6013 227.2 83.7213 227.2H84.6013L84.9613 227.52C84.4546 228.16 83.8946 228.653 83.2813 229C82.6946 229.347 81.8546 229.52 80.7613 229.52C79.5879 229.52 78.6546 229.253 77.9613 228.72C77.2946 228.16 76.8546 227.427 76.6413 226.52C75.8413 227.373 75.0146 228.107 74.1613 228.72C73.3346 229.307 72.2546 229.6 70.9213 229.6ZM73.3613 227.16C73.8946 227.16 74.3879 227.04 74.8412 226.8C75.3213 226.533 75.8813 226.133 76.5213 225.6V218.88C76.2546 218.933 75.9879 218.987 75.7213 219.04C75.4546 219.093 75.1479 219.147 74.8013 219.2C73.5746 219.52 72.5879 220.067 71.8413 220.84C71.1213 221.587 70.7613 222.6 70.7613 223.88C70.7613 224.973 71.0146 225.8 71.5213 226.36C72.0279 226.893 72.6413 227.16 73.3613 227.16ZM79.1213 205.8C78.3746 205.8 77.6946 205.56 77.0813 205.08C76.4946 204.573 76.2013 203.893 76.2013 203.04C76.2013 202.187 76.4946 201.52 77.0813 201.04C77.6946 200.533 78.3746 200.28 79.1213 200.28C79.9213 200.28 80.6013 200.533 81.1613 201.04C81.7479 201.52 82.0413 202.187 82.0413 203.04C82.0413 203.893 81.7479 204.573 81.1613 205.08C80.6013 205.56 79.9213 205.8 79.1213 205.8ZM69.8413 205.8C69.0679 205.8 68.3879 205.56 67.8013 205.08C67.2146 204.573 66.9212 203.893 66.9212 203.04C66.9212 202.187 67.2146 201.52 67.8013 201.04C68.3879 200.533 69.0679 200.28 69.8413 200.28C70.6146 200.28 71.2946 200.533 71.8813 201.04C72.4679 201.52 72.7613 202.187 72.7613 203.04C72.7613 203.893 72.4679 204.573 71.8813 205.08C71.2946 205.56 70.6146 205.8 69.8413 205.8ZM85.9044 229V228.6L86.3844 228.44C87.3444 228.12 87.8244 227.453 87.8244 226.44V205.08C87.8244 204.52 87.731 204.107 87.5444 203.84C87.3577 203.573 86.9977 203.373 86.4644 203.24L85.8644 203.08V202.68L92.9044 200.96L93.5444 201.32L93.3844 206.96V211.96C94.3177 211.187 95.3177 210.533 96.3844 210C97.4777 209.44 98.6777 209.16 99.9844 209.16C101.718 209.16 103.091 209.653 104.104 210.64C105.144 211.627 105.664 213.147 105.664 215.2V226.48C105.664 227.013 105.771 227.44 105.984 227.76C106.198 228.08 106.571 228.32 107.104 228.48L107.424 228.6V229H98.0644V228.6L98.5444 228.48C99.5044 228.16 99.9844 227.48 99.9844 226.44V213.88C99.9844 212.813 99.7977 212.08 99.4244 211.68C99.0777 211.28 98.451 211.08 97.5444 211.08C96.9577 211.08 96.3177 211.2 95.6244 211.44C94.931 211.653 94.2244 212.04 93.5044 212.6V226.52C93.5044 227.56 93.9844 228.227 94.9444 228.52L95.2644 228.6V229H85.9044ZM109.108 229V228.6L109.588 228.44C110.548 228.12 111.028 227.453 111.028 226.44V205.04C111.028 204.507 110.921 204.107 110.708 203.84C110.494 203.547 110.121 203.333 109.588 203.2L109.068 203.08V202.68L116.388 200.96L116.868 201.32L116.708 206.92V220.6C116.708 221.587 116.708 222.573 116.708 223.56C116.734 224.52 116.748 225.48 116.748 226.44C116.748 226.973 116.854 227.413 117.068 227.76C117.281 228.08 117.641 228.32 118.148 228.48L118.668 228.6V229H109.108ZM130.473 209.16C132.206 209.16 133.686 209.52 134.913 210.24C136.139 210.933 137.073 211.893 137.713 213.12C138.379 214.32 138.713 215.693 138.713 217.24C138.713 217.533 138.699 217.84 138.673 218.16C138.646 218.453 138.593 218.72 138.513 218.96H126.593C126.619 221.84 127.126 223.92 128.113 225.2C129.126 226.453 130.619 227.08 132.593 227.08C133.926 227.08 135.006 226.867 135.833 226.44C136.659 226.013 137.433 225.387 138.153 224.56L138.553 224.92C137.726 226.387 136.619 227.533 135.233 228.36C133.873 229.187 132.233 229.6 130.313 229.6C128.419 229.6 126.739 229.2 125.273 228.4C123.806 227.573 122.659 226.4 121.833 224.88C121.006 223.36 120.593 221.547 120.593 219.44C120.593 217.253 121.073 215.4 122.033 213.88C122.993 212.333 124.219 211.16 125.713 210.36C127.233 209.56 128.819 209.16 130.473 209.16ZM130.353 209.96C129.579 209.96 128.913 210.2 128.353 210.68C127.819 211.133 127.393 211.96 127.073 213.16C126.779 214.333 126.619 216 126.593 218.16H133.433C133.699 215.253 133.593 213.16 133.113 211.88C132.633 210.6 131.713 209.96 130.353 209.96ZM140.706 229V228.6L141.266 228.44C142.2 228.173 142.666 227.52 142.666 226.48V213.96C142.666 213.373 142.573 212.947 142.386 212.68C142.2 212.387 141.84 212.187 141.306 212.08L140.706 211.92V211.52L147.546 209.2L147.946 209.6L148.266 212C149.2 211.173 150.253 210.493 151.426 209.96C152.6 209.427 153.76 209.16 154.906 209.16C156.666 209.16 158.013 209.64 158.946 210.6C159.906 211.56 160.386 213.027 160.386 215V226.52C160.386 227.56 160.893 228.213 161.906 228.48L162.266 228.6V229H152.826V228.6L153.346 228.44C154.28 228.147 154.746 227.493 154.746 226.48V213.72C154.746 212.013 153.893 211.16 152.186 211.16C151.013 211.16 149.733 211.747 148.346 212.92V226.52C148.346 227.56 148.813 228.213 149.746 228.48L150.106 228.6V229H140.706Z" fill="white"/>
<path d="M94.1956 137.223C94.3185 137.47 94.6186 137.571 94.8659 137.448C95.1132 137.325 95.214 137.025 95.0911 136.777L94.1956 137.223ZM105.302 86.0776L105.694 86.3876L105.302 86.0776ZM1.04645 0.502162C0.771499 0.47651 0.527814 0.678604 0.502162 0.953552L0.0841324 5.43409C0.0584801 5.70904 0.260574 5.95273 0.535523 5.97838C0.810471 6.00403 1.05416 5.80194 1.07981 5.52699L1.45139 1.54429L5.43409 1.91587C5.70904 1.94152 5.95273 1.73943 5.97838 1.46448C6.00403 1.18953 5.80194 0.945844 5.52699 0.920192L1.04645 0.502162ZM95.0911 136.777C91.3705 129.292 88.1516 108.592 105.694 86.3876L104.91 85.7677C87.1268 108.276 90.303 129.39 94.1956 137.223L95.0911 136.777ZM105.694 86.3876C116.751 72.3932 127.071 55.5692 131.38 41.4334C133.532 34.3711 134.206 27.911 132.653 22.7937C131.085 17.6289 127.27 13.9024 120.645 12.3129L120.412 13.2853C126.729 14.8008 130.242 18.2935 131.696 23.0841C133.164 27.9223 132.553 34.154 130.423 41.1419C126.167 55.1066 115.932 71.8169 104.91 85.7677L105.694 86.3876ZM120.645 12.3129C114.102 10.7431 104.427 10.5528 93.3828 10.8049C87.8523 10.9312 81.9621 11.1691 75.9311 11.4043C69.8983 11.6397 63.7231 11.8723 57.6142 11.9887C45.3914 12.2214 33.4612 11.9875 23.503 10.3842C13.5211 8.7771 5.63964 5.81122 1.38487 0.680819L0.615132 1.31918C5.11561 6.74586 13.3172 9.75715 23.344 11.3715C33.3944 12.9896 45.3984 13.2215 57.6333 12.9885C63.7533 12.8719 69.9377 12.6389 75.9701 12.4036C82.0044 12.1682 87.8851 11.9307 93.4056 11.8047C104.464 11.5522 114.013 11.7501 120.412 13.2853L120.645 12.3129Z" fill="white"/>
</svg>
