<svg width="271" height="241" viewBox="0 0 271 241" fill="none" xmlns="http://www.w3.org/2000/svg">
<path d="M90.7014 183.6C88.7281 183.6 87.1147 182.933 85.8614 181.6C84.6081 180.267 83.9814 178.4 83.9814 176C83.9814 174.293 84.2747 172.68 84.8614 171.16C85.4481 169.613 86.2614 168.24 87.3014 167.04C88.3681 165.84 89.5814 164.893 90.9414 164.2C92.3281 163.507 93.8081 163.16 95.3814 163.16C96.3147 163.16 97.1814 163.307 97.9814 163.6C98.8081 163.893 99.4614 164.307 99.9414 164.84C100.448 165.373 100.688 166 100.661 166.72C100.635 167.44 100.408 168.013 99.9814 168.44C99.5547 168.84 98.9947 169.04 98.3014 169.04C97.5547 169.04 96.9547 168.813 96.5014 168.36C96.0481 167.907 95.6881 167.387 95.4214 166.8L95.1814 166.12C94.8081 165.24 94.4747 164.72 94.1814 164.56C93.9147 164.373 93.4481 164.56 92.7814 165.12C92.0614 165.733 91.3814 166.56 90.7414 167.6C90.1281 168.64 89.6347 169.787 89.2614 171.04C88.8881 172.293 88.7014 173.573 88.7014 174.88C88.7014 176.88 89.1281 178.36 89.9814 179.32C90.8614 180.253 92.0347 180.72 93.5014 180.72C94.4614 180.72 95.4081 180.413 96.3414 179.8C97.2747 179.187 98.1414 178.333 98.9414 177.24L99.5014 177.64C98.9414 178.68 98.2214 179.653 97.3414 180.56C96.4614 181.467 95.4481 182.2 94.3014 182.76C93.1814 183.32 91.9814 183.6 90.7014 183.6ZM100.644 183.24L100.404 183L104.044 165.56C104.258 164.547 104.444 163.64 104.604 162.84C104.764 162.013 104.938 161.093 105.124 160.08C105.338 158.933 104.898 158.173 103.804 157.8L103.164 157.6L103.244 157.2L110.884 154.96L111.164 155.24L108.444 168C109.778 166.613 111.191 165.467 112.684 164.56C114.204 163.627 115.604 163.16 116.884 163.16C117.738 163.16 118.431 163.427 118.964 163.96C119.524 164.467 119.804 165.267 119.804 166.36C119.804 166.92 119.751 167.507 119.644 168.12C119.538 168.707 119.404 169.32 119.244 169.96L117.244 178.12C117.138 178.627 117.031 179.067 116.924 179.44C116.818 179.787 116.764 180.067 116.764 180.28C116.764 180.84 117.004 181.12 117.484 181.12C118.178 181.12 119.151 180.533 120.404 179.36L120.764 179.72C120.124 180.707 119.258 181.6 118.164 182.4C117.071 183.2 115.831 183.6 114.444 183.6C113.564 183.6 112.884 183.4 112.404 183C111.924 182.573 111.684 181.987 111.684 181.24C111.684 180.68 111.751 180.107 111.884 179.52C112.018 178.907 112.178 178.28 112.364 177.64L114.164 170.6C114.351 169.88 114.511 169.227 114.644 168.64C114.804 168.027 114.884 167.507 114.884 167.08C114.884 166.147 114.444 165.68 113.564 165.68C112.258 165.68 110.538 166.747 108.404 168.88L107.204 174.44C106.858 176.067 106.551 177.547 106.284 178.88C106.044 180.187 105.804 181.56 105.564 183L100.644 183.24ZM130.561 183.6C129.174 183.6 127.908 183.333 126.761 182.8C125.614 182.24 124.708 181.413 124.041 180.32C123.374 179.2 123.041 177.787 123.041 176.08C123.041 174.373 123.321 172.747 123.881 171.2C124.468 169.653 125.281 168.28 126.321 167.08C127.361 165.853 128.574 164.893 129.961 164.2C131.348 163.507 132.854 163.16 134.481 163.16C135.894 163.16 137.148 163.44 138.241 164C139.361 164.533 140.241 165.347 140.881 166.44C141.548 167.533 141.881 168.933 141.881 170.64C141.881 172.32 141.588 173.947 141.001 175.52C140.441 177.067 139.641 178.453 138.601 179.68C137.588 180.88 136.388 181.84 135.001 182.56C133.641 183.253 132.161 183.6 130.561 183.6ZM131.041 182.8C131.868 182.8 132.614 182.427 133.281 181.68C133.974 180.907 134.574 179.893 135.081 178.64C135.588 177.36 135.974 175.96 136.241 174.44C136.508 172.893 136.641 171.36 136.641 169.84C136.641 167.627 136.414 166.093 135.961 165.24C135.508 164.387 134.921 163.96 134.201 163.96C133.348 163.96 132.561 164.333 131.841 165.08C131.121 165.827 130.494 166.827 129.961 168.08C129.428 169.333 129.014 170.72 128.721 172.24C128.428 173.76 128.281 175.28 128.281 176.8C128.281 179.067 128.548 180.64 129.081 181.52C129.614 182.373 130.268 182.8 131.041 182.8ZM151.499 183.6C150.112 183.6 148.845 183.333 147.699 182.8C146.552 182.24 145.645 181.413 144.979 180.32C144.312 179.2 143.979 177.787 143.979 176.08C143.979 174.373 144.259 172.747 144.819 171.2C145.405 169.653 146.219 168.28 147.259 167.08C148.299 165.853 149.512 164.893 150.899 164.2C152.285 163.507 153.792 163.16 155.419 163.16C156.832 163.16 158.085 163.44 159.179 164C160.299 164.533 161.179 165.347 161.819 166.44C162.485 167.533 162.819 168.933 162.819 170.64C162.819 172.32 162.525 173.947 161.939 175.52C161.379 177.067 160.579 178.453 159.539 179.68C158.525 180.88 157.325 181.84 155.939 182.56C154.579 183.253 153.099 183.6 151.499 183.6ZM151.979 182.8C152.805 182.8 153.552 182.427 154.219 181.68C154.912 180.907 155.512 179.893 156.019 178.64C156.525 177.36 156.912 175.96 157.179 174.44C157.445 172.893 157.579 171.36 157.579 169.84C157.579 167.627 157.352 166.093 156.899 165.24C156.445 164.387 155.859 163.96 155.139 163.96C154.285 163.96 153.499 164.333 152.779 165.08C152.059 165.827 151.432 166.827 150.899 168.08C150.365 169.333 149.952 170.72 149.659 172.24C149.365 173.76 149.219 175.28 149.219 176.8C149.219 179.067 149.485 180.64 150.019 181.52C150.552 182.373 151.205 182.8 151.979 182.8ZM169.602 183.6C167.922 183.6 166.562 183.267 165.522 182.6C164.482 181.933 163.962 180.987 163.962 179.76C163.962 179.12 164.188 178.56 164.642 178.08C165.095 177.6 165.682 177.36 166.402 177.36C167.735 177.36 168.562 178.173 168.882 179.8L169.122 180.92C169.255 181.48 169.415 181.933 169.602 182.28C169.815 182.627 170.215 182.8 170.802 182.8C171.468 182.8 172.055 182.52 172.562 181.96C173.068 181.4 173.322 180.627 173.322 179.64C173.322 178.893 173.082 178.173 172.602 177.48C172.148 176.787 171.375 176.027 170.282 175.2C169.188 174.347 168.308 173.467 167.642 172.56C166.975 171.627 166.642 170.52 166.642 169.24C166.642 168.12 166.922 167.107 167.482 166.2C168.068 165.267 168.908 164.533 170.002 164C171.095 163.44 172.388 163.16 173.882 163.16C175.615 163.16 176.975 163.507 177.962 164.2C178.975 164.893 179.482 165.787 179.482 166.88C179.482 167.467 179.308 167.96 178.962 168.36C178.615 168.733 178.095 168.92 177.402 168.92C176.122 168.92 175.255 168.147 174.802 166.6L174.402 165.48C174.268 164.947 174.108 164.573 173.922 164.36C173.735 164.147 173.442 164.04 173.042 164.04C172.615 164.04 172.175 164.28 171.722 164.76C171.268 165.213 171.042 165.947 171.042 166.96C171.042 167.92 171.322 168.8 171.882 169.6C172.468 170.373 173.335 171.187 174.482 172.04C175.655 172.92 176.508 173.773 177.042 174.6C177.602 175.427 177.882 176.427 177.882 177.6C177.882 178.693 177.562 179.693 176.922 180.6C176.282 181.507 175.348 182.24 174.122 182.8C172.895 183.333 171.388 183.6 169.602 183.6ZM187.616 183.6C185.616 183.6 183.99 182.947 182.736 181.64C181.483 180.333 180.856 178.48 180.856 176.08C180.856 174.373 181.15 172.747 181.736 171.2C182.323 169.653 183.136 168.28 184.176 167.08C185.243 165.853 186.47 164.893 187.856 164.2C189.243 163.507 190.75 163.16 192.376 163.16C194.056 163.16 195.336 163.547 196.216 164.32C197.123 165.067 197.576 166.067 197.576 167.32C197.576 168.36 197.083 169.387 196.096 170.4C195.136 171.413 193.776 172.333 192.016 173.16C190.256 173.96 188.19 174.573 185.816 175C185.843 176.84 186.243 178.187 187.016 179.04C187.79 179.893 188.856 180.32 190.216 180.32C191.363 180.32 192.416 180.013 193.376 179.4C194.336 178.76 195.15 178.013 195.816 177.16L196.216 177.44C195.683 178.48 194.99 179.467 194.136 180.4C193.31 181.333 192.35 182.107 191.256 182.72C190.163 183.307 188.95 183.6 187.616 183.6ZM192.096 164.24C191.483 164.24 190.816 164.507 190.096 165.04C189.403 165.573 188.736 166.307 188.096 167.24C187.483 168.147 186.963 169.2 186.536 170.4C186.136 171.573 185.896 172.827 185.816 174.16C188.75 173.36 190.83 172.307 192.056 171C193.31 169.693 193.936 168.213 193.936 166.56C193.936 165.76 193.763 165.173 193.416 164.8C193.07 164.427 192.63 164.24 192.096 164.24ZM89.6361 229.6C88.0894 229.6 86.7828 229.16 85.7161 228.28C84.6761 227.4 84.1561 226.133 84.1561 224.48C84.1561 223.227 84.7961 222.08 86.0761 221.04C87.3561 219.973 89.3694 219.173 92.1161 218.64C92.5428 218.56 93.0228 218.48 93.5561 218.4C94.0894 218.293 94.6494 218.187 95.2361 218.08V214.92C95.2361 213.107 95.0094 211.84 94.5561 211.12C94.1294 210.373 93.4494 210 92.5161 210C91.8761 210 91.3694 210.213 90.9961 210.64C90.6228 211.04 90.3828 211.747 90.2761 212.76L90.1961 213.2C90.1428 214.347 89.8628 215.187 89.3561 215.72C88.8494 216.253 88.2228 216.52 87.4761 216.52C86.7828 216.52 86.2094 216.307 85.7561 215.88C85.3028 215.453 85.0761 214.88 85.0761 214.16C85.0761 213.067 85.4494 212.147 86.1961 211.4C86.9694 210.653 87.9828 210.093 89.2361 209.72C90.4894 209.347 91.8494 209.16 93.3161 209.16C95.6894 209.16 97.5161 209.747 98.7961 210.92C100.103 212.067 100.756 213.947 100.756 216.56V225.4C100.756 226.6 101.316 227.2 102.436 227.2H103.316L103.676 227.52C103.169 228.16 102.609 228.653 101.996 229C101.409 229.347 100.569 229.52 99.4761 229.52C98.3028 229.52 97.3694 229.253 96.6761 228.72C96.0094 228.16 95.5694 227.427 95.3561 226.52C94.5561 227.373 93.7294 228.107 92.8761 228.72C92.0494 229.307 90.9694 229.6 89.6361 229.6ZM92.0761 227.16C92.6094 227.16 93.1028 227.04 93.5561 226.8C94.0361 226.533 94.5961 226.133 95.2361 225.6V218.88C94.9694 218.933 94.7028 218.987 94.4361 219.04C94.1694 219.093 93.8628 219.147 93.5161 219.2C92.2894 219.52 91.3028 220.067 90.5561 220.84C89.8361 221.587 89.4761 222.6 89.4761 223.88C89.4761 224.973 89.7294 225.8 90.2361 226.36C90.7428 226.893 91.3561 227.16 92.0761 227.16ZM120.13 229.6C118.823 229.6 117.65 229.44 116.61 229.12C115.57 228.827 114.61 228.453 113.73 228L113.77 223.24H114.17L115.53 225.64C116.117 226.707 116.757 227.507 117.45 228.04C118.17 228.547 119.077 228.8 120.17 228.8C121.45 228.8 122.477 228.52 123.25 227.96C124.05 227.373 124.45 226.6 124.45 225.64C124.45 224.76 124.17 224.04 123.61 223.48C123.05 222.92 122.01 222.413 120.49 221.96L118.81 221.44C117.183 220.96 115.903 220.213 114.97 219.2C114.037 218.187 113.57 216.947 113.57 215.48C113.57 213.72 114.263 212.227 115.65 211C117.037 209.773 119.023 209.16 121.61 209.16C122.65 209.16 123.623 209.28 124.53 209.52C125.463 209.733 126.357 210.067 127.21 210.52L126.97 214.84H126.57L125.17 212.36C124.663 211.48 124.157 210.867 123.65 210.52C123.17 210.147 122.437 209.96 121.45 209.96C120.543 209.96 119.69 210.213 118.89 210.72C118.09 211.227 117.69 211.947 117.69 212.88C117.69 213.787 118.023 214.507 118.69 215.04C119.383 215.573 120.397 216.067 121.73 216.52L123.53 217.04C125.45 217.627 126.823 218.44 127.65 219.48C128.477 220.493 128.89 221.72 128.89 223.16C128.89 225.107 128.117 226.667 126.57 227.84C125.05 229.013 122.903 229.6 120.13 229.6ZM140.752 229.6C138.725 229.6 136.965 229.187 135.472 228.36C133.979 227.507 132.819 226.307 131.992 224.76C131.192 223.213 130.792 221.4 130.792 219.32C130.792 217.24 131.219 215.44 132.072 213.92C132.952 212.4 134.139 211.227 135.632 210.4C137.152 209.573 138.859 209.16 140.752 209.16C142.645 209.16 144.339 209.573 145.832 210.4C147.325 211.2 148.499 212.36 149.352 213.88C150.232 215.4 150.672 217.213 150.672 219.32C150.672 221.427 150.259 223.253 149.432 224.8C148.632 226.32 147.485 227.507 145.992 228.36C144.525 229.187 142.779 229.6 140.752 229.6ZM140.752 228.8C141.685 228.8 142.432 228.533 142.992 228C143.552 227.467 143.952 226.52 144.192 225.16C144.459 223.8 144.592 221.88 144.592 219.4C144.592 216.893 144.459 214.96 144.192 213.6C143.952 212.24 143.552 211.293 142.992 210.76C142.432 210.227 141.685 209.96 140.752 209.96C139.819 209.96 139.059 210.227 138.472 210.76C137.912 211.293 137.499 212.24 137.232 213.6C136.992 214.96 136.872 216.893 136.872 219.4C136.872 221.88 136.992 223.8 137.232 225.16C137.499 226.52 137.912 227.467 138.472 228C139.059 228.533 139.819 228.8 140.752 228.8ZM152.429 229V228.6L152.989 228.44C153.922 228.173 154.389 227.52 154.389 226.48V213.96C154.389 213.373 154.296 212.947 154.109 212.68C153.922 212.387 153.562 212.187 153.029 212.08L152.429 211.92V211.52L159.269 209.2L159.669 209.6L159.989 212C160.922 211.173 161.976 210.493 163.149 209.96C164.322 209.427 165.482 209.16 166.629 209.16C168.389 209.16 169.736 209.64 170.669 210.6C171.629 211.56 172.109 213.027 172.109 215V226.52C172.109 227.56 172.616 228.213 173.629 228.48L173.989 228.6V229H164.549V228.6L165.069 228.44C166.002 228.147 166.469 227.493 166.469 226.48V213.72C166.469 212.013 165.616 211.16 163.909 211.16C162.736 211.16 161.456 211.747 160.069 212.92V226.52C160.069 227.56 160.536 228.213 161.469 228.48L161.829 228.6V229H152.429ZM184.274 222.08C182.434 222.08 180.874 221.773 179.594 221.16V222.52C179.594 223.347 180.007 223.84 180.834 224L188.354 225.4C189.607 225.64 190.741 225.96 191.754 226.36C192.767 226.733 193.581 227.28 194.194 228C194.807 228.693 195.114 229.653 195.114 230.88C195.114 232.187 194.687 233.387 193.834 234.48C192.981 235.6 191.714 236.493 190.034 237.16C188.381 237.853 186.314 238.2 183.834 238.2C181.701 238.2 180.007 237.973 178.754 237.52C177.501 237.093 176.607 236.533 176.074 235.84C175.567 235.147 175.314 234.413 175.314 233.64C175.314 232.68 175.634 231.707 176.274 230.72C176.941 229.76 177.754 228.987 178.714 228.4C177.887 228.08 177.287 227.667 176.914 227.16C176.541 226.653 176.354 226.107 176.354 225.52C176.354 224.987 176.487 224.493 176.754 224.04C177.047 223.56 177.394 223.08 177.794 222.6L179.114 220.92C177.167 219.8 176.194 218.04 176.194 215.64C176.194 213.72 176.874 212.16 178.234 210.96C179.621 209.76 181.647 209.16 184.314 209.16C185.674 209.16 186.861 209.32 187.874 209.64C188.914 209.96 189.767 210.413 190.434 211C191.287 210.867 192.087 210.653 192.834 210.36C193.607 210.04 194.301 209.613 194.914 209.08L195.474 209.48V211.52H190.954C191.914 212.587 192.394 213.96 192.394 215.64C192.394 217.507 191.701 219.053 190.314 220.28C188.954 221.48 186.941 222.08 184.274 222.08ZM184.234 221.28C185.301 221.28 186.074 220.84 186.554 219.96C187.061 219.08 187.314 217.613 187.314 215.56C187.314 213.507 187.061 212.067 186.554 211.24C186.074 210.387 185.327 209.96 184.314 209.96C183.327 209.96 182.581 210.4 182.074 211.28C181.567 212.133 181.314 213.587 181.314 215.64C181.314 217.693 181.541 219.147 181.994 220C182.474 220.853 183.221 221.28 184.234 221.28ZM178.274 232.36C178.274 233.933 178.754 235.12 179.714 235.92C180.701 236.72 182.247 237.12 184.354 237.12C186.567 237.12 188.234 236.76 189.354 236.04C190.474 235.32 191.034 234.307 191.034 233C191.034 232.253 190.754 231.653 190.194 231.2C189.661 230.747 188.741 230.4 187.434 230.16L180.194 228.8C179.981 228.747 179.767 228.693 179.554 228.64C179.181 229.173 178.874 229.773 178.634 230.44C178.394 231.133 178.274 231.773 178.274 232.36Z" fill="white"/>
<path d="M135.196 137.223C135.319 137.47 135.619 137.571 135.866 137.448C136.113 137.325 136.214 137.025 136.091 136.777L135.196 137.223ZM146.302 86.0776L146.694 86.3876L146.694 86.3876L146.302 86.0776ZM42.0464 0.502162C41.7715 0.47651 41.5278 0.678604 41.5022 0.953552L41.0841 5.43409C41.0585 5.70904 41.2606 5.95273 41.5355 5.97838C41.8105 6.00403 42.0542 5.80194 42.0798 5.52699L42.4514 1.54429L46.4341 1.91587C46.709 1.94152 46.9527 1.73943 46.9784 1.46448C47.004 1.18953 46.8019 0.945844 46.527 0.920192L42.0464 0.502162ZM136.091 136.777C132.371 129.292 129.152 108.592 146.694 86.3876L145.91 85.7677C128.127 108.276 131.303 129.39 135.196 137.223L136.091 136.777ZM146.694 86.3876C157.751 72.3932 168.071 55.5692 172.38 41.4334C174.532 34.3711 175.206 27.911 173.653 22.7937C172.085 17.6289 168.27 13.9024 161.645 12.3129L161.412 13.2853C167.729 14.8008 171.242 18.2935 172.696 23.0841C174.164 27.9223 173.553 34.154 171.423 41.1419C167.167 55.1066 156.932 71.8169 145.91 85.7677L146.694 86.3876ZM161.645 12.3129C155.102 10.7431 145.427 10.5528 134.383 10.8049C128.852 10.9312 122.962 11.1691 116.931 11.4043C110.898 11.6397 104.723 11.8723 98.6142 11.9887C86.3914 12.2214 74.4612 11.9875 64.503 10.3842C54.5211 8.7771 46.6396 5.81122 42.3849 0.680819L41.6151 1.31918C46.1156 6.74586 54.3172 9.75715 64.344 11.3715C74.3944 12.9896 86.3984 13.2215 98.6333 12.9885C104.753 12.8719 110.938 12.6389 116.97 12.4036C123.004 12.1682 128.885 11.9307 134.406 11.8047C145.464 11.5522 155.013 11.7501 161.412 13.2853L161.645 12.3129Z" fill="white"/>
</svg>
